%TF.GenerationSoftware,KiCad,Pcbnew,5.1.5-5.1.5*%
%TF.CreationDate,2019-11-28T22:59:43+11:00*%
%TF.ProjectId,srdisplay,73726469-7370-46c6-9179-2e6b69636164,rev?*%
%TF.SameCoordinates,Original*%
%TF.FileFunction,Copper,L1,Top*%
%TF.FilePolarity,Positive*%
%FSLAX46Y46*%
G04 Gerber Fmt 4.6, Leading zero omitted, Abs format (unit mm)*
G04 Created by KiCad (PCBNEW 5.1.5-5.1.5) date 2019-11-28 22:59:43*
%MOMM*%
%LPD*%
G04 APERTURE LIST*
%ADD10C,1.879600*%
%ADD11O,1.700000X1.700000*%
%ADD12R,1.700000X1.700000*%
%ADD13C,6.000000*%
%ADD14C,1.600000*%
%ADD15R,1.600000X1.600000*%
%ADD16O,1.600000X1.600000*%
%ADD17C,1.800000*%
%ADD18R,1.800000X1.800000*%
%ADD19C,0.800000*%
%ADD20C,0.250000*%
%ADD21C,0.300000*%
G04 APERTURE END LIST*
D10*
X170180000Y-38100000D03*
X172720000Y-38100000D03*
X175260000Y-38100000D03*
D11*
X180340000Y-119380000D03*
X177800000Y-119380000D03*
X175260000Y-119380000D03*
X172720000Y-119380000D03*
X170180000Y-119380000D03*
X167640000Y-119380000D03*
D12*
X165100000Y-119380000D03*
D13*
X190500000Y-124460000D03*
D11*
X177800000Y-114300000D03*
X180340000Y-114300000D03*
D12*
X182880000Y-114300000D03*
D13*
X152400000Y-124460000D03*
D14*
X172680000Y-101600000D03*
D15*
X170180000Y-101600000D03*
D16*
X170180000Y-114300000D03*
D14*
X160020000Y-114300000D03*
D13*
X190500000Y-35560000D03*
X152400000Y-35560000D03*
D17*
X170180000Y-109220000D03*
D18*
X172720000Y-109220000D03*
D17*
X162560000Y-38100000D03*
D18*
X160020000Y-38100000D03*
D17*
X162560000Y-48260000D03*
D18*
X160020000Y-48260000D03*
D17*
X162560000Y-58420000D03*
D18*
X160020000Y-58420000D03*
D17*
X162560000Y-68580000D03*
D18*
X160020000Y-68580000D03*
D17*
X162560000Y-78740000D03*
D18*
X160020000Y-78740000D03*
D17*
X162560000Y-88900000D03*
D18*
X160020000Y-88900000D03*
D17*
X162560000Y-99060000D03*
D18*
X160020000Y-99060000D03*
D17*
X162560000Y-109220000D03*
D18*
X160020000Y-109220000D03*
D17*
X180340000Y-38100000D03*
D18*
X182880000Y-38100000D03*
D17*
X180340000Y-48260000D03*
D18*
X182880000Y-48260000D03*
D17*
X180340000Y-58420000D03*
D18*
X182880000Y-58420000D03*
D17*
X180340000Y-68580000D03*
D18*
X182880000Y-68580000D03*
D17*
X180340000Y-78740000D03*
D18*
X182880000Y-78740000D03*
D17*
X180340000Y-88900000D03*
D18*
X182880000Y-88900000D03*
D17*
X180340000Y-99060000D03*
D18*
X182880000Y-99060000D03*
D17*
X180340000Y-109220000D03*
D18*
X182880000Y-109220000D03*
D14*
X175180000Y-73660000D03*
X170180000Y-73660000D03*
X175180000Y-45720000D03*
X170180000Y-45720000D03*
D16*
X167640000Y-96520000D03*
X175260000Y-78740000D03*
X167640000Y-93980000D03*
X175260000Y-81280000D03*
X167640000Y-91440000D03*
X175260000Y-83820000D03*
X167640000Y-88900000D03*
X175260000Y-86360000D03*
X167640000Y-86360000D03*
X175260000Y-88900000D03*
X167640000Y-83820000D03*
X175260000Y-91440000D03*
X167640000Y-81280000D03*
X175260000Y-93980000D03*
X167640000Y-78740000D03*
D15*
X175260000Y-96520000D03*
D16*
X167640000Y-68580000D03*
X175260000Y-50800000D03*
X167640000Y-66040000D03*
X175260000Y-53340000D03*
X167640000Y-63500000D03*
X175260000Y-55880000D03*
X167640000Y-60960000D03*
X175260000Y-58420000D03*
X167640000Y-58420000D03*
X175260000Y-60960000D03*
X167640000Y-55880000D03*
X175260000Y-63500000D03*
X167640000Y-53340000D03*
X175260000Y-66040000D03*
X167640000Y-50800000D03*
D15*
X175260000Y-68580000D03*
D16*
X154940000Y-83820000D03*
X154940000Y-81280000D03*
X154940000Y-78740000D03*
X154940000Y-76200000D03*
X154940000Y-73660000D03*
X154940000Y-71120000D03*
X154940000Y-68580000D03*
X154940000Y-66040000D03*
D15*
X154940000Y-63500000D03*
D16*
X187960000Y-83820000D03*
X187960000Y-81280000D03*
X187960000Y-78740000D03*
X187960000Y-76200000D03*
X187960000Y-73660000D03*
X187960000Y-71120000D03*
X187960000Y-68580000D03*
X187960000Y-66040000D03*
D15*
X187960000Y-63500000D03*
D19*
X170262300Y-66122300D03*
D20*
X182880000Y-109220000D02*
X182880000Y-107994700D01*
X187960000Y-83820000D02*
X187960000Y-102914700D01*
X187960000Y-102914700D02*
X182880000Y-107994700D01*
X180340000Y-99060000D02*
X176835600Y-95555600D01*
X176835600Y-95555600D02*
X176835600Y-71280900D01*
X176835600Y-71280900D02*
X175260000Y-69705300D01*
X175260000Y-68580000D02*
X175260000Y-69705300D01*
X182880000Y-99060000D02*
X182880000Y-97834700D01*
X187960000Y-81280000D02*
X187960000Y-82405300D01*
X187960000Y-82405300D02*
X187678600Y-82405300D01*
X187678600Y-82405300D02*
X184105300Y-85978600D01*
X184105300Y-85978600D02*
X184105300Y-96609400D01*
X184105300Y-96609400D02*
X182880000Y-97834700D01*
X175260000Y-67165300D02*
X175963300Y-67165300D01*
X175963300Y-67165300D02*
X178268100Y-69470100D01*
X178268100Y-69470100D02*
X178268100Y-86828100D01*
X178268100Y-86828100D02*
X180340000Y-88900000D01*
X175260000Y-66040000D02*
X175260000Y-67165300D01*
X175260000Y-63500000D02*
X175260000Y-64625300D01*
X175260000Y-64625300D02*
X175541300Y-64625300D01*
X175541300Y-64625300D02*
X178718500Y-67802500D01*
X178718500Y-67802500D02*
X178718500Y-77118500D01*
X178718500Y-77118500D02*
X180340000Y-78740000D01*
X175260000Y-60960000D02*
X175260000Y-62085300D01*
X175260000Y-62085300D02*
X175541300Y-62085300D01*
X175541300Y-62085300D02*
X180340000Y-66884000D01*
X180340000Y-66884000D02*
X180340000Y-68580000D01*
X187960000Y-71120000D02*
X187960000Y-69994700D01*
X187960000Y-69994700D02*
X187678700Y-69994700D01*
X187678700Y-69994700D02*
X182880000Y-65196000D01*
X182880000Y-65196000D02*
X182880000Y-58420000D01*
X182880000Y-48260000D02*
X182880000Y-49485300D01*
X187960000Y-68580000D02*
X187960000Y-67454700D01*
X187960000Y-67454700D02*
X187678700Y-67454700D01*
X187678700Y-67454700D02*
X184105300Y-63881300D01*
X184105300Y-63881300D02*
X184105300Y-50710600D01*
X184105300Y-50710600D02*
X182880000Y-49485300D01*
X175260000Y-53340000D02*
X175260000Y-52214700D01*
X175260000Y-52214700D02*
X175541400Y-52214700D01*
X175541400Y-52214700D02*
X176385300Y-51370800D01*
X176385300Y-51370800D02*
X176385300Y-42054700D01*
X176385300Y-42054700D02*
X180340000Y-38100000D01*
X187960000Y-64914700D02*
X187256600Y-64914700D01*
X187256600Y-64914700D02*
X184555600Y-62213700D01*
X184555600Y-62213700D02*
X184555600Y-41000900D01*
X184555600Y-41000900D02*
X182880000Y-39325300D01*
X182880000Y-38100000D02*
X182880000Y-39325300D01*
X187960000Y-66040000D02*
X187960000Y-64914700D01*
X167640000Y-93980000D02*
X167640000Y-95105300D01*
X167640000Y-95105300D02*
X167358600Y-95105300D01*
X167358600Y-95105300D02*
X166514700Y-95949200D01*
X166514700Y-95949200D02*
X166514700Y-105265300D01*
X166514700Y-105265300D02*
X162560000Y-109220000D01*
X160020000Y-107994700D02*
X154940000Y-102914700D01*
X154940000Y-102914700D02*
X154940000Y-83820000D01*
X160020000Y-109220000D02*
X160020000Y-107994700D01*
X160020000Y-99060000D02*
X160020000Y-97834700D01*
X154940000Y-81280000D02*
X154940000Y-82405300D01*
X154940000Y-82405300D02*
X155221400Y-82405300D01*
X155221400Y-82405300D02*
X158794700Y-85978600D01*
X158794700Y-85978600D02*
X158794700Y-96609400D01*
X158794700Y-96609400D02*
X160020000Y-97834700D01*
X167921400Y-82694700D02*
X169237400Y-84010700D01*
X169237400Y-84010700D02*
X169237400Y-99568500D01*
X169237400Y-99568500D02*
X168604400Y-100201500D01*
X168604400Y-100201500D02*
X168604400Y-102721400D01*
X168604400Y-102721400D02*
X171494600Y-105611600D01*
X171494600Y-105611600D02*
X171494600Y-116979300D01*
X171494600Y-116979300D02*
X172720000Y-118204700D01*
X167640000Y-57005300D02*
X167921300Y-57005300D01*
X167921300Y-57005300D02*
X169268700Y-58352700D01*
X169268700Y-58352700D02*
X169268700Y-71346700D01*
X169268700Y-71346700D02*
X168596400Y-72019000D01*
X168596400Y-72019000D02*
X168596400Y-75180300D01*
X168596400Y-75180300D02*
X168765300Y-75349200D01*
X168765300Y-75349200D02*
X168765300Y-81850800D01*
X168765300Y-81850800D02*
X167921400Y-82694700D01*
X167921400Y-82694700D02*
X167640000Y-82694700D01*
X172720000Y-119380000D02*
X172720000Y-118204700D01*
X167640000Y-83820000D02*
X167640000Y-82694700D01*
X167640000Y-55880000D02*
X167640000Y-57005300D01*
D21*
X175260000Y-78740000D02*
X175260000Y-79890300D01*
X172680000Y-101600000D02*
X172680000Y-82231900D01*
X172680000Y-82231900D02*
X175021600Y-79890300D01*
X175021600Y-79890300D02*
X175260000Y-79890300D01*
X175260000Y-78740000D02*
X175260000Y-77589700D01*
X175260000Y-77589700D02*
X175180000Y-77509700D01*
X175180000Y-77509700D02*
X175180000Y-73660000D01*
X175180000Y-73660000D02*
X174083300Y-72563300D01*
X174083300Y-72563300D02*
X174083300Y-51976700D01*
X174083300Y-51976700D02*
X175260000Y-50800000D01*
X177800000Y-114300000D02*
X177800000Y-115500300D01*
X177800000Y-115500300D02*
X180340000Y-118040300D01*
X180340000Y-118040300D02*
X180340000Y-119380000D01*
X175180000Y-45720000D02*
X175180000Y-38180000D01*
X175180000Y-38180000D02*
X175260000Y-38100000D01*
X175260000Y-49649700D02*
X175180000Y-49569700D01*
X175180000Y-49569700D02*
X175180000Y-45720000D01*
X175260000Y-50800000D02*
X175260000Y-49649700D01*
X170180000Y-73660000D02*
X171012600Y-72827400D01*
X171012600Y-72827400D02*
X171012600Y-57575300D01*
X171012600Y-57575300D02*
X167927600Y-54490300D01*
X167927600Y-54490300D02*
X167640000Y-54490300D01*
X170180000Y-100449700D02*
X170180000Y-73660000D01*
X170180000Y-101600000D02*
X170180000Y-100449700D01*
X167640000Y-53340000D02*
X167640000Y-54490300D01*
X170180000Y-102175100D02*
X170180000Y-101600000D01*
X170180000Y-102175100D02*
X170180000Y-102750300D01*
X170180000Y-102750300D02*
X176460400Y-109030700D01*
X176460400Y-109030700D02*
X176460400Y-116840100D01*
X176460400Y-116840100D02*
X177800000Y-118179700D01*
X177800000Y-119380000D02*
X177800000Y-118179700D01*
X170180000Y-45720000D02*
X170180000Y-38100000D01*
D20*
X167640000Y-91440000D02*
X167640000Y-90314700D01*
X167640000Y-50800000D02*
X167640000Y-51925300D01*
X167640000Y-51925300D02*
X167358700Y-51925300D01*
X167358700Y-51925300D02*
X165575000Y-53709000D01*
X165575000Y-53709000D02*
X165575000Y-88531000D01*
X165575000Y-88531000D02*
X167358700Y-90314700D01*
X167358700Y-90314700D02*
X167640000Y-90314700D01*
X154940000Y-71120000D02*
X154940000Y-69994700D01*
X154940000Y-69994700D02*
X155221300Y-69994700D01*
X155221300Y-69994700D02*
X160020000Y-65196000D01*
X160020000Y-65196000D02*
X160020000Y-58420000D01*
X160020000Y-48260000D02*
X160020000Y-49485300D01*
X154940000Y-68580000D02*
X154940000Y-67454700D01*
X154940000Y-67454700D02*
X155221300Y-67454700D01*
X155221300Y-67454700D02*
X158794700Y-63881300D01*
X158794700Y-63881300D02*
X158794700Y-50710600D01*
X158794700Y-50710600D02*
X160020000Y-49485300D01*
X160020000Y-39325300D02*
X158344400Y-41000900D01*
X158344400Y-41000900D02*
X158344400Y-62213700D01*
X158344400Y-62213700D02*
X155643400Y-64914700D01*
X155643400Y-64914700D02*
X154940000Y-64914700D01*
X160020000Y-38100000D02*
X160020000Y-39325300D01*
X154940000Y-66040000D02*
X154940000Y-64914700D01*
X175260000Y-119380000D02*
X175260000Y-108740100D01*
X175260000Y-108740100D02*
X169054700Y-102534800D01*
X169054700Y-102534800D02*
X169054700Y-100495300D01*
X169054700Y-100495300D02*
X169704600Y-99845400D01*
X169704600Y-99845400D02*
X169704600Y-75426300D01*
X169704600Y-75426300D02*
X169046700Y-74768400D01*
X169046700Y-74768400D02*
X169046700Y-72244100D01*
X169046700Y-72244100D02*
X170262300Y-71028500D01*
X170262300Y-71028500D02*
X170262300Y-66122300D01*
X167640000Y-87485300D02*
X167921400Y-87485300D01*
X167921400Y-87485300D02*
X168765300Y-88329200D01*
X168765300Y-88329200D02*
X168765300Y-99285900D01*
X168765300Y-99285900D02*
X168152300Y-99898900D01*
X168152300Y-99898900D02*
X168152300Y-116177000D01*
X168152300Y-116177000D02*
X170180000Y-118204700D01*
X167640000Y-59545300D02*
X167921300Y-59545300D01*
X167921300Y-59545300D02*
X168818300Y-60442300D01*
X168818300Y-60442300D02*
X168818300Y-70074600D01*
X168818300Y-70074600D02*
X166514700Y-72378200D01*
X166514700Y-72378200D02*
X166514700Y-84390800D01*
X166514700Y-84390800D02*
X167358600Y-85234700D01*
X167358600Y-85234700D02*
X167640000Y-85234700D01*
X167640000Y-86360000D02*
X167640000Y-85234700D01*
X167640000Y-58420000D02*
X167640000Y-59545300D01*
X167640000Y-86360000D02*
X167640000Y-87485300D01*
X170180000Y-119380000D02*
X170180000Y-118204700D01*
X167640000Y-88900000D02*
X166025400Y-87285400D01*
X166025400Y-87285400D02*
X166025400Y-63418600D01*
X166025400Y-63418600D02*
X167358700Y-62085300D01*
X167358700Y-62085300D02*
X167640000Y-62085300D01*
X167640000Y-60960000D02*
X167640000Y-62085300D01*
M02*
