M48
; DRILL file {KiCad 5.1.5-5.1.5} date Thu 28 Nov 2019 22:59:46 AEDT
; FORMAT={-:-/ absolute / inch / decimal}
; #@! TF.CreationDate,2019-11-28T22:59:46+11:00
; #@! TF.GenerationSoftware,Kicad,Pcbnew,5.1.5-5.1.5
; #@! TF.FileFunction,Plated,1,2,PTH
FMAT,2
INCH
T1C0.0157
T2C0.0315
T3C0.0354
T4C0.0394
T5C0.0400
T6C0.1181
%
G90
G05
T1
X6.7032Y-2.6032
T2
X6.7Y-2.9
X6.8969Y-2.9
X6.6Y-2.0
X6.6Y-2.1
X6.6Y-2.2
X6.6Y-2.3
X6.6Y-2.4
X6.6Y-2.5
X6.6Y-2.6
X6.6Y-2.7
X6.9Y-2.0
X6.9Y-2.1
X6.9Y-2.2
X6.9Y-2.3
X6.9Y-2.4
X6.9Y-2.5
X6.9Y-2.6
X6.9Y-2.7
X7.4Y-2.5
X7.4Y-2.6
X7.4Y-2.7
X7.4Y-2.8
X7.4Y-2.9
X7.4Y-3.0
X7.4Y-3.1
X7.4Y-3.2
X7.4Y-3.3
X6.3Y-4.5
X6.7Y-4.5
X6.6Y-3.1
X6.6Y-3.2
X6.6Y-3.3
X6.6Y-3.4
X6.6Y-3.5
X6.6Y-3.6
X6.6Y-3.7
X6.6Y-3.8
X6.9Y-3.1
X6.9Y-3.2
X6.9Y-3.3
X6.9Y-3.4
X6.9Y-3.5
X6.9Y-3.6
X6.9Y-3.7
X6.9Y-3.8
X6.1Y-2.5
X6.1Y-2.6
X6.1Y-2.7
X6.1Y-2.8
X6.1Y-2.9
X6.1Y-3.0
X6.1Y-3.1
X6.1Y-3.2
X6.1Y-3.3
X6.7Y-4.0
X6.7984Y-4.0
X6.7Y-1.8
X6.8969Y-1.8
T3
X7.1Y-1.9
X7.2Y-1.9
X6.7Y-4.3
X6.8Y-4.3
X6.3Y-3.9
X6.4Y-3.9
X6.3Y-1.9
X6.4Y-1.9
X6.3Y-3.1
X6.4Y-3.1
X7.1Y-3.9
X7.2Y-3.9
X7.1Y-3.5
X7.2Y-3.5
X7.1Y-4.3
X7.2Y-4.3
X7.1Y-2.7
X7.2Y-2.7
X7.1Y-3.1
X7.2Y-3.1
X7.1Y-1.5
X7.2Y-1.5
X6.3Y-2.7
X6.4Y-2.7
X6.3Y-4.3
X6.4Y-4.3
X7.1Y-2.3
X7.2Y-2.3
X6.3Y-1.5
X6.4Y-1.5
X6.3Y-3.5
X6.4Y-3.5
X6.3Y-2.3
X6.4Y-2.3
T4
X7.0Y-4.5
X7.1Y-4.5
X7.2Y-4.5
X6.5Y-4.7
X6.6Y-4.7
X6.7Y-4.7
X6.8Y-4.7
X6.9Y-4.7
X7.0Y-4.7
X7.1Y-4.7
T5
X6.7Y-1.5
X6.8Y-1.5
X6.9Y-1.5
T6
X7.5Y-4.9
X7.5Y-1.4
X6.0Y-1.4
X6.0Y-4.9
T0
M30
