%TF.GenerationSoftware,KiCad,Pcbnew,5.1.5-5.1.5*%
%TF.CreationDate,2019-11-28T22:59:43+11:00*%
%TF.ProjectId,srdisplay,73726469-7370-46c6-9179-2e6b69636164,rev?*%
%TF.SameCoordinates,Original*%
%TF.FileFunction,Legend,Bot*%
%TF.FilePolarity,Positive*%
%FSLAX46Y46*%
G04 Gerber Fmt 4.6, Leading zero omitted, Abs format (unit mm)*
G04 Created by KiCad (PCBNEW 5.1.5-5.1.5) date 2019-11-28 22:59:43*
%MOMM*%
%LPD*%
G04 APERTURE LIST*
%ADD10C,0.150000*%
%ADD11C,0.200000*%
%ADD12C,0.203200*%
%ADD13C,0.120000*%
%ADD14C,0.010000*%
%ADD15C,0.127000*%
G04 APERTURE END LIST*
D10*
X179840000Y-125886785D02*
X179792380Y-125791547D01*
X179792380Y-125648690D01*
X179840000Y-125505833D01*
X179935238Y-125410595D01*
X180030476Y-125362976D01*
X180220952Y-125315357D01*
X180363809Y-125315357D01*
X180554285Y-125362976D01*
X180649523Y-125410595D01*
X180744761Y-125505833D01*
X180792380Y-125648690D01*
X180792380Y-125743928D01*
X180744761Y-125886785D01*
X180697142Y-125934404D01*
X180363809Y-125934404D01*
X180363809Y-125743928D01*
X180792380Y-126362976D02*
X179792380Y-126362976D01*
X180792380Y-126934404D01*
X179792380Y-126934404D01*
X180792380Y-127410595D02*
X179792380Y-127410595D01*
X179792380Y-127648690D01*
X179840000Y-127791547D01*
X179935238Y-127886785D01*
X180030476Y-127934404D01*
X180220952Y-127982023D01*
X180363809Y-127982023D01*
X180554285Y-127934404D01*
X180649523Y-127886785D01*
X180744761Y-127791547D01*
X180792380Y-127648690D01*
X180792380Y-127410595D01*
X166725000Y-126220119D02*
X166725000Y-127267738D01*
X167092380Y-126648690D02*
X167092380Y-126839166D01*
X167140000Y-126934404D01*
X167235238Y-127029642D01*
X167425714Y-127077261D01*
X167759047Y-127077261D01*
X167949523Y-127029642D01*
X168044761Y-126934404D01*
X168092380Y-126839166D01*
X168092380Y-126648690D01*
X168044761Y-126553452D01*
X167949523Y-126458214D01*
X167759047Y-126410595D01*
X167425714Y-126410595D01*
X167235238Y-126458214D01*
X167140000Y-126553452D01*
X167092380Y-126648690D01*
X166725000Y-127267738D02*
X166725000Y-128172500D01*
X167568571Y-127505833D02*
X167568571Y-127839166D01*
X168092380Y-127982023D02*
X168092380Y-127505833D01*
X167092380Y-127505833D01*
X167092380Y-127982023D01*
X165552380Y-125505833D02*
X164552380Y-125505833D01*
X164552380Y-125743928D01*
X164600000Y-125886785D01*
X164695238Y-125982023D01*
X164790476Y-126029642D01*
X164980952Y-126077261D01*
X165123809Y-126077261D01*
X165314285Y-126029642D01*
X165409523Y-125982023D01*
X165504761Y-125886785D01*
X165552380Y-125743928D01*
X165552380Y-125505833D01*
X165552380Y-127029642D02*
X165552380Y-126458214D01*
X165552380Y-126743928D02*
X164552380Y-126743928D01*
X164695238Y-126648690D01*
X164790476Y-126553452D01*
X164838095Y-126458214D01*
X164552380Y-127362976D02*
X164552380Y-128029642D01*
X165552380Y-127601071D01*
X170632380Y-125172500D02*
X170156190Y-124839166D01*
X170632380Y-124601071D02*
X169632380Y-124601071D01*
X169632380Y-124982023D01*
X169680000Y-125077261D01*
X169727619Y-125124880D01*
X169822857Y-125172500D01*
X169965714Y-125172500D01*
X170060952Y-125124880D01*
X170108571Y-125077261D01*
X170156190Y-124982023D01*
X170156190Y-124601071D01*
X170537142Y-126172500D02*
X170584761Y-126124880D01*
X170632380Y-125982023D01*
X170632380Y-125886785D01*
X170584761Y-125743928D01*
X170489523Y-125648690D01*
X170394285Y-125601071D01*
X170203809Y-125553452D01*
X170060952Y-125553452D01*
X169870476Y-125601071D01*
X169775238Y-125648690D01*
X169680000Y-125743928D01*
X169632380Y-125886785D01*
X169632380Y-125982023D01*
X169680000Y-126124880D01*
X169727619Y-126172500D01*
X170632380Y-127077261D02*
X170632380Y-126601071D01*
X169632380Y-126601071D01*
X170632380Y-127410595D02*
X169632380Y-127410595D01*
X170632380Y-127982023D02*
X170060952Y-127553452D01*
X169632380Y-127982023D02*
X170203809Y-127410595D01*
X173124761Y-123601071D02*
X173172380Y-123743928D01*
X173172380Y-123982023D01*
X173124761Y-124077261D01*
X173077142Y-124124880D01*
X172981904Y-124172500D01*
X172886666Y-124172500D01*
X172791428Y-124124880D01*
X172743809Y-124077261D01*
X172696190Y-123982023D01*
X172648571Y-123791547D01*
X172600952Y-123696309D01*
X172553333Y-123648690D01*
X172458095Y-123601071D01*
X172362857Y-123601071D01*
X172267619Y-123648690D01*
X172220000Y-123696309D01*
X172172380Y-123791547D01*
X172172380Y-124029642D01*
X172220000Y-124172500D01*
X173172380Y-125172500D02*
X172696190Y-124839166D01*
X173172380Y-124601071D02*
X172172380Y-124601071D01*
X172172380Y-124982023D01*
X172220000Y-125077261D01*
X172267619Y-125124880D01*
X172362857Y-125172500D01*
X172505714Y-125172500D01*
X172600952Y-125124880D01*
X172648571Y-125077261D01*
X172696190Y-124982023D01*
X172696190Y-124601071D01*
X173077142Y-126172500D02*
X173124761Y-126124880D01*
X173172380Y-125982023D01*
X173172380Y-125886785D01*
X173124761Y-125743928D01*
X173029523Y-125648690D01*
X172934285Y-125601071D01*
X172743809Y-125553452D01*
X172600952Y-125553452D01*
X172410476Y-125601071D01*
X172315238Y-125648690D01*
X172220000Y-125743928D01*
X172172380Y-125886785D01*
X172172380Y-125982023D01*
X172220000Y-126124880D01*
X172267619Y-126172500D01*
X173172380Y-127077261D02*
X173172380Y-126601071D01*
X172172380Y-126601071D01*
X173172380Y-127410595D02*
X172172380Y-127410595D01*
X173172380Y-127982023D02*
X172600952Y-127553452D01*
X172172380Y-127982023D02*
X172743809Y-127410595D01*
X175664761Y-125505833D02*
X175712380Y-125648690D01*
X175712380Y-125886785D01*
X175664761Y-125982023D01*
X175617142Y-126029642D01*
X175521904Y-126077261D01*
X175426666Y-126077261D01*
X175331428Y-126029642D01*
X175283809Y-125982023D01*
X175236190Y-125886785D01*
X175188571Y-125696309D01*
X175140952Y-125601071D01*
X175093333Y-125553452D01*
X174998095Y-125505833D01*
X174902857Y-125505833D01*
X174807619Y-125553452D01*
X174760000Y-125601071D01*
X174712380Y-125696309D01*
X174712380Y-125934404D01*
X174760000Y-126077261D01*
X175188571Y-126505833D02*
X175188571Y-126839166D01*
X175712380Y-126982023D02*
X175712380Y-126505833D01*
X174712380Y-126505833D01*
X174712380Y-126982023D01*
X175712380Y-127982023D02*
X175236190Y-127648690D01*
X175712380Y-127410595D02*
X174712380Y-127410595D01*
X174712380Y-127791547D01*
X174760000Y-127886785D01*
X174807619Y-127934404D01*
X174902857Y-127982023D01*
X175045714Y-127982023D01*
X175140952Y-127934404D01*
X175188571Y-127886785D01*
X175236190Y-127791547D01*
X175236190Y-127410595D01*
X177871428Y-125362976D02*
X177871428Y-126124880D01*
X178252380Y-125743928D02*
X177490476Y-125743928D01*
X177252380Y-127077261D02*
X177252380Y-126601071D01*
X177728571Y-126553452D01*
X177680952Y-126601071D01*
X177633333Y-126696309D01*
X177633333Y-126934404D01*
X177680952Y-127029642D01*
X177728571Y-127077261D01*
X177823809Y-127124880D01*
X178061904Y-127124880D01*
X178157142Y-127077261D01*
X178204761Y-127029642D01*
X178252380Y-126934404D01*
X178252380Y-126696309D01*
X178204761Y-126601071D01*
X178157142Y-126553452D01*
X177252380Y-127410595D02*
X178252380Y-127743928D01*
X177252380Y-128077261D01*
D11*
X153224761Y-98632380D02*
X153272380Y-98775238D01*
X153272380Y-99013333D01*
X153224761Y-99108571D01*
X153177142Y-99156190D01*
X153081904Y-99203809D01*
X152986666Y-99203809D01*
X152891428Y-99156190D01*
X152843809Y-99108571D01*
X152796190Y-99013333D01*
X152748571Y-98822857D01*
X152700952Y-98727619D01*
X152653333Y-98680000D01*
X152558095Y-98632380D01*
X152462857Y-98632380D01*
X152367619Y-98680000D01*
X152320000Y-98727619D01*
X152272380Y-98822857D01*
X152272380Y-99060952D01*
X152320000Y-99203809D01*
X153272380Y-99632380D02*
X152272380Y-99632380D01*
X153272380Y-100060952D02*
X152748571Y-100060952D01*
X152653333Y-100013333D01*
X152605714Y-99918095D01*
X152605714Y-99775238D01*
X152653333Y-99679999D01*
X152700952Y-99632380D01*
X153272380Y-100537142D02*
X152605714Y-100537142D01*
X152272380Y-100537142D02*
X152320000Y-100489523D01*
X152367619Y-100537142D01*
X152320000Y-100584761D01*
X152272380Y-100537142D01*
X152367619Y-100537142D01*
X152605714Y-100870476D02*
X152605714Y-101251428D01*
X153272380Y-101013333D02*
X152415238Y-101013333D01*
X152320000Y-101060952D01*
X152272380Y-101156190D01*
X152272380Y-101251428D01*
X152605714Y-101441904D02*
X152605714Y-101822857D01*
X152272380Y-101584761D02*
X153129523Y-101584761D01*
X153224761Y-101632380D01*
X153272380Y-101727619D01*
X153272380Y-101822857D01*
X153272380Y-103489523D02*
X152796190Y-103156190D01*
X153272380Y-102918095D02*
X152272380Y-102918095D01*
X152272380Y-103299047D01*
X152320000Y-103394285D01*
X152367619Y-103441904D01*
X152462857Y-103489523D01*
X152605714Y-103489523D01*
X152700952Y-103441904D01*
X152748571Y-103394285D01*
X152796190Y-103299047D01*
X152796190Y-102918095D01*
X153224761Y-104299047D02*
X153272380Y-104203809D01*
X153272380Y-104013333D01*
X153224761Y-103918095D01*
X153129523Y-103870476D01*
X152748571Y-103870476D01*
X152653333Y-103918095D01*
X152605714Y-104013333D01*
X152605714Y-104203809D01*
X152653333Y-104299047D01*
X152748571Y-104346666D01*
X152843809Y-104346666D01*
X152939047Y-103870476D01*
X152605714Y-105203809D02*
X153415238Y-105203809D01*
X153510476Y-105156190D01*
X153558095Y-105108571D01*
X153605714Y-105013333D01*
X153605714Y-104870476D01*
X153558095Y-104775238D01*
X153224761Y-105203809D02*
X153272380Y-105108571D01*
X153272380Y-104918095D01*
X153224761Y-104822857D01*
X153177142Y-104775238D01*
X153081904Y-104727619D01*
X152796190Y-104727619D01*
X152700952Y-104775238D01*
X152653333Y-104822857D01*
X152605714Y-104918095D01*
X152605714Y-105108571D01*
X152653333Y-105203809D01*
X153272380Y-105679999D02*
X152605714Y-105679999D01*
X152272380Y-105679999D02*
X152320000Y-105632380D01*
X152367619Y-105679999D01*
X152320000Y-105727619D01*
X152272380Y-105679999D01*
X152367619Y-105679999D01*
X153224761Y-106108571D02*
X153272380Y-106203809D01*
X153272380Y-106394285D01*
X153224761Y-106489523D01*
X153129523Y-106537142D01*
X153081904Y-106537142D01*
X152986666Y-106489523D01*
X152939047Y-106394285D01*
X152939047Y-106251428D01*
X152891428Y-106156190D01*
X152796190Y-106108571D01*
X152748571Y-106108571D01*
X152653333Y-106156190D01*
X152605714Y-106251428D01*
X152605714Y-106394285D01*
X152653333Y-106489523D01*
X152605714Y-106822857D02*
X152605714Y-107203809D01*
X152272380Y-106965714D02*
X153129523Y-106965714D01*
X153224761Y-107013333D01*
X153272380Y-107108571D01*
X153272380Y-107203809D01*
X153224761Y-107918095D02*
X153272380Y-107822857D01*
X153272380Y-107632380D01*
X153224761Y-107537142D01*
X153129523Y-107489523D01*
X152748571Y-107489523D01*
X152653333Y-107537142D01*
X152605714Y-107632380D01*
X152605714Y-107822857D01*
X152653333Y-107918095D01*
X152748571Y-107965714D01*
X152843809Y-107965714D01*
X152939047Y-107489523D01*
X153272380Y-108394285D02*
X152605714Y-108394285D01*
X152796190Y-108394285D02*
X152700952Y-108441904D01*
X152653333Y-108489523D01*
X152605714Y-108584761D01*
X152605714Y-108679999D01*
X153272380Y-109775238D02*
X152272380Y-109775238D01*
X152272380Y-110013333D01*
X152320000Y-110156190D01*
X152415238Y-110251428D01*
X152510476Y-110299047D01*
X152700952Y-110346666D01*
X152843809Y-110346666D01*
X153034285Y-110299047D01*
X153129523Y-110251428D01*
X153224761Y-110156190D01*
X153272380Y-110013333D01*
X153272380Y-109775238D01*
X153272380Y-110775238D02*
X152605714Y-110775238D01*
X152272380Y-110775238D02*
X152320000Y-110727619D01*
X152367619Y-110775238D01*
X152320000Y-110822857D01*
X152272380Y-110775238D01*
X152367619Y-110775238D01*
X153224761Y-111203809D02*
X153272380Y-111299047D01*
X153272380Y-111489523D01*
X153224761Y-111584761D01*
X153129523Y-111632380D01*
X153081904Y-111632380D01*
X152986666Y-111584761D01*
X152939047Y-111489523D01*
X152939047Y-111346666D01*
X152891428Y-111251428D01*
X152796190Y-111203809D01*
X152748571Y-111203809D01*
X152653333Y-111251428D01*
X152605714Y-111346666D01*
X152605714Y-111489523D01*
X152653333Y-111584761D01*
X152605714Y-112060952D02*
X153605714Y-112060952D01*
X152653333Y-112060952D02*
X152605714Y-112156190D01*
X152605714Y-112346666D01*
X152653333Y-112441904D01*
X152700952Y-112489523D01*
X152796190Y-112537142D01*
X153081904Y-112537142D01*
X153177142Y-112489523D01*
X153224761Y-112441904D01*
X153272380Y-112346666D01*
X153272380Y-112156190D01*
X153224761Y-112060952D01*
X153272380Y-113108571D02*
X153224761Y-113013333D01*
X153129523Y-112965714D01*
X152272380Y-112965714D01*
X153272380Y-113918095D02*
X152748571Y-113918095D01*
X152653333Y-113870476D01*
X152605714Y-113775238D01*
X152605714Y-113584761D01*
X152653333Y-113489523D01*
X153224761Y-113918095D02*
X153272380Y-113822857D01*
X153272380Y-113584761D01*
X153224761Y-113489523D01*
X153129523Y-113441904D01*
X153034285Y-113441904D01*
X152939047Y-113489523D01*
X152891428Y-113584761D01*
X152891428Y-113822857D01*
X152843809Y-113918095D01*
X152605714Y-114299047D02*
X153272380Y-114537142D01*
X152605714Y-114775238D02*
X153272380Y-114537142D01*
X153510476Y-114441904D01*
X153558095Y-114394285D01*
X153605714Y-114299047D01*
X154972380Y-101537142D02*
X153972380Y-101537142D01*
X154972380Y-102108571D02*
X154400952Y-101680000D01*
X153972380Y-102108571D02*
X154543809Y-101537142D01*
X154924761Y-102918095D02*
X154972380Y-102822857D01*
X154972380Y-102632380D01*
X154924761Y-102537142D01*
X154829523Y-102489523D01*
X154448571Y-102489523D01*
X154353333Y-102537142D01*
X154305714Y-102632380D01*
X154305714Y-102822857D01*
X154353333Y-102918095D01*
X154448571Y-102965714D01*
X154543809Y-102965714D01*
X154639047Y-102489523D01*
X154305714Y-103394285D02*
X154972380Y-103394285D01*
X154400952Y-103394285D02*
X154353333Y-103441904D01*
X154305714Y-103537142D01*
X154305714Y-103680000D01*
X154353333Y-103775238D01*
X154448571Y-103822857D01*
X154972380Y-103822857D01*
X154496190Y-105251428D02*
X154972380Y-105251428D01*
X153972380Y-104918095D02*
X154496190Y-105251428D01*
X153972380Y-105584761D01*
X154972380Y-106346666D02*
X154448571Y-106346666D01*
X154353333Y-106299047D01*
X154305714Y-106203809D01*
X154305714Y-106013333D01*
X154353333Y-105918095D01*
X154924761Y-106346666D02*
X154972380Y-106251428D01*
X154972380Y-106013333D01*
X154924761Y-105918095D01*
X154829523Y-105870476D01*
X154734285Y-105870476D01*
X154639047Y-105918095D01*
X154591428Y-106013333D01*
X154591428Y-106251428D01*
X154543809Y-106346666D01*
X154305714Y-106822857D02*
X155305714Y-106822857D01*
X154353333Y-106822857D02*
X154305714Y-106918095D01*
X154305714Y-107108571D01*
X154353333Y-107203809D01*
X154400952Y-107251428D01*
X154496190Y-107299047D01*
X154781904Y-107299047D01*
X154877142Y-107251428D01*
X154924761Y-107203809D01*
X154972380Y-107108571D01*
X154972380Y-106918095D01*
X154924761Y-106822857D01*
X154067619Y-108441904D02*
X154020000Y-108489523D01*
X153972380Y-108584761D01*
X153972380Y-108822857D01*
X154020000Y-108918095D01*
X154067619Y-108965714D01*
X154162857Y-109013333D01*
X154258095Y-109013333D01*
X154400952Y-108965714D01*
X154972380Y-108394285D01*
X154972380Y-109013333D01*
X153972380Y-109632380D02*
X153972380Y-109727619D01*
X154020000Y-109822857D01*
X154067619Y-109870476D01*
X154162857Y-109918095D01*
X154353333Y-109965714D01*
X154591428Y-109965714D01*
X154781904Y-109918095D01*
X154877142Y-109870476D01*
X154924761Y-109822857D01*
X154972380Y-109727619D01*
X154972380Y-109632380D01*
X154924761Y-109537142D01*
X154877142Y-109489523D01*
X154781904Y-109441904D01*
X154591428Y-109394285D01*
X154353333Y-109394285D01*
X154162857Y-109441904D01*
X154067619Y-109489523D01*
X154020000Y-109537142D01*
X153972380Y-109632380D01*
X154972380Y-110918095D02*
X154972380Y-110346666D01*
X154972380Y-110632380D02*
X153972380Y-110632380D01*
X154115238Y-110537142D01*
X154210476Y-110441904D01*
X154258095Y-110346666D01*
X154972380Y-111394285D02*
X154972380Y-111584761D01*
X154924761Y-111680000D01*
X154877142Y-111727619D01*
X154734285Y-111822857D01*
X154543809Y-111870476D01*
X154162857Y-111870476D01*
X154067619Y-111822857D01*
X154020000Y-111775238D01*
X153972380Y-111680000D01*
X153972380Y-111489523D01*
X154020000Y-111394285D01*
X154067619Y-111346666D01*
X154162857Y-111299047D01*
X154400952Y-111299047D01*
X154496190Y-111346666D01*
X154543809Y-111394285D01*
X154591428Y-111489523D01*
X154591428Y-111680000D01*
X154543809Y-111775238D01*
X154496190Y-111822857D01*
X154400952Y-111870476D01*
D12*
X168910000Y-37465000D02*
X168910000Y-38735000D01*
X174625000Y-39370000D02*
X175895000Y-39370000D01*
X176530000Y-38735000D02*
X175895000Y-39370000D01*
X175895000Y-36830000D02*
X176530000Y-37465000D01*
X176530000Y-37465000D02*
X176530000Y-38735000D01*
X173355000Y-39370000D02*
X173990000Y-38735000D01*
X172085000Y-39370000D02*
X173355000Y-39370000D01*
X171450000Y-38735000D02*
X172085000Y-39370000D01*
X172085000Y-36830000D02*
X171450000Y-37465000D01*
X173355000Y-36830000D02*
X172085000Y-36830000D01*
X173990000Y-37465000D02*
X173355000Y-36830000D01*
X173990000Y-38735000D02*
X174625000Y-39370000D01*
X174625000Y-36830000D02*
X173990000Y-37465000D01*
X175895000Y-36830000D02*
X174625000Y-36830000D01*
X170815000Y-39370000D02*
X171450000Y-38735000D01*
X169545000Y-39370000D02*
X170815000Y-39370000D01*
X168910000Y-38735000D02*
X169545000Y-39370000D01*
X169545000Y-36830000D02*
X168910000Y-37465000D01*
X170815000Y-36830000D02*
X169545000Y-36830000D01*
X171450000Y-37465000D02*
X170815000Y-36830000D01*
D13*
X163830000Y-118110000D02*
X163830000Y-119380000D01*
X165100000Y-118110000D02*
X163830000Y-118110000D01*
X180720000Y-120422929D02*
X180720000Y-120820000D01*
X179960000Y-120422929D02*
X179960000Y-120820000D01*
X180720000Y-129480000D02*
X180720000Y-123480000D01*
X179960000Y-129480000D02*
X180720000Y-129480000D01*
X179960000Y-123480000D02*
X179960000Y-129480000D01*
X179070000Y-120820000D02*
X179070000Y-123480000D01*
X178180000Y-120422929D02*
X178180000Y-120820000D01*
X177420000Y-120422929D02*
X177420000Y-120820000D01*
X178180000Y-129480000D02*
X178180000Y-123480000D01*
X177420000Y-129480000D02*
X178180000Y-129480000D01*
X177420000Y-123480000D02*
X177420000Y-129480000D01*
X176530000Y-120820000D02*
X176530000Y-123480000D01*
X175640000Y-120422929D02*
X175640000Y-120820000D01*
X174880000Y-120422929D02*
X174880000Y-120820000D01*
X175640000Y-129480000D02*
X175640000Y-123480000D01*
X174880000Y-129480000D02*
X175640000Y-129480000D01*
X174880000Y-123480000D02*
X174880000Y-129480000D01*
X173990000Y-120820000D02*
X173990000Y-123480000D01*
X173100000Y-120422929D02*
X173100000Y-120820000D01*
X172340000Y-120422929D02*
X172340000Y-120820000D01*
X173100000Y-129480000D02*
X173100000Y-123480000D01*
X172340000Y-129480000D02*
X173100000Y-129480000D01*
X172340000Y-123480000D02*
X172340000Y-129480000D01*
X171450000Y-120820000D02*
X171450000Y-123480000D01*
X170560000Y-120422929D02*
X170560000Y-120820000D01*
X169800000Y-120422929D02*
X169800000Y-120820000D01*
X170560000Y-129480000D02*
X170560000Y-123480000D01*
X169800000Y-129480000D02*
X170560000Y-129480000D01*
X169800000Y-123480000D02*
X169800000Y-129480000D01*
X168910000Y-120820000D02*
X168910000Y-123480000D01*
X168020000Y-120422929D02*
X168020000Y-120820000D01*
X167260000Y-120422929D02*
X167260000Y-120820000D01*
X168020000Y-129480000D02*
X168020000Y-123480000D01*
X167260000Y-129480000D02*
X168020000Y-129480000D01*
X167260000Y-123480000D02*
X167260000Y-129480000D01*
X166370000Y-120820000D02*
X166370000Y-123480000D01*
X165480000Y-120490000D02*
X165480000Y-120820000D01*
X164720000Y-120490000D02*
X164720000Y-120820000D01*
X165380000Y-123480000D02*
X165380000Y-129480000D01*
X165260000Y-123480000D02*
X165260000Y-129480000D01*
X165140000Y-123480000D02*
X165140000Y-129480000D01*
X165020000Y-123480000D02*
X165020000Y-129480000D01*
X164900000Y-123480000D02*
X164900000Y-129480000D01*
X164780000Y-123480000D02*
X164780000Y-129480000D01*
X165480000Y-129480000D02*
X165480000Y-123480000D01*
X164720000Y-129480000D02*
X165480000Y-129480000D01*
X164720000Y-123480000D02*
X164720000Y-129480000D01*
X163770000Y-123480000D02*
X163770000Y-120820000D01*
X181670000Y-123480000D02*
X163770000Y-123480000D01*
X181670000Y-120820000D02*
X181670000Y-123480000D01*
X163770000Y-120820000D02*
X181670000Y-120820000D01*
X184210000Y-115630000D02*
X184210000Y-114300000D01*
X182880000Y-115630000D02*
X184210000Y-115630000D01*
X181610000Y-115630000D02*
X181610000Y-112970000D01*
X181610000Y-112970000D02*
X176470000Y-112970000D01*
X181610000Y-115630000D02*
X176470000Y-115630000D01*
X176470000Y-115630000D02*
X176470000Y-112970000D01*
X168875225Y-103325000D02*
X168875225Y-102825000D01*
X168625225Y-103075000D02*
X169125225Y-103075000D01*
X174031000Y-101884000D02*
X174031000Y-101316000D01*
X173991000Y-102118000D02*
X173991000Y-101082000D01*
X173951000Y-102277000D02*
X173951000Y-100923000D01*
X173911000Y-102405000D02*
X173911000Y-100795000D01*
X173871000Y-102515000D02*
X173871000Y-100685000D01*
X173831000Y-102611000D02*
X173831000Y-100589000D01*
X173791000Y-102698000D02*
X173791000Y-100502000D01*
X173751000Y-102778000D02*
X173751000Y-100422000D01*
X173711000Y-100560000D02*
X173711000Y-100349000D01*
X173711000Y-102851000D02*
X173711000Y-102640000D01*
X173671000Y-100560000D02*
X173671000Y-100281000D01*
X173671000Y-102919000D02*
X173671000Y-102640000D01*
X173631000Y-100560000D02*
X173631000Y-100217000D01*
X173631000Y-102983000D02*
X173631000Y-102640000D01*
X173591000Y-100560000D02*
X173591000Y-100157000D01*
X173591000Y-103043000D02*
X173591000Y-102640000D01*
X173551000Y-100560000D02*
X173551000Y-100100000D01*
X173551000Y-103100000D02*
X173551000Y-102640000D01*
X173511000Y-100560000D02*
X173511000Y-100046000D01*
X173511000Y-103154000D02*
X173511000Y-102640000D01*
X173471000Y-100560000D02*
X173471000Y-99995000D01*
X173471000Y-103205000D02*
X173471000Y-102640000D01*
X173431000Y-100560000D02*
X173431000Y-99947000D01*
X173431000Y-103253000D02*
X173431000Y-102640000D01*
X173391000Y-100560000D02*
X173391000Y-99901000D01*
X173391000Y-103299000D02*
X173391000Y-102640000D01*
X173351000Y-100560000D02*
X173351000Y-99857000D01*
X173351000Y-103343000D02*
X173351000Y-102640000D01*
X173311000Y-100560000D02*
X173311000Y-99815000D01*
X173311000Y-103385000D02*
X173311000Y-102640000D01*
X173271000Y-100560000D02*
X173271000Y-99774000D01*
X173271000Y-103426000D02*
X173271000Y-102640000D01*
X173231000Y-100560000D02*
X173231000Y-99736000D01*
X173231000Y-103464000D02*
X173231000Y-102640000D01*
X173191000Y-100560000D02*
X173191000Y-99699000D01*
X173191000Y-103501000D02*
X173191000Y-102640000D01*
X173151000Y-100560000D02*
X173151000Y-99663000D01*
X173151000Y-103537000D02*
X173151000Y-102640000D01*
X173111000Y-100560000D02*
X173111000Y-99629000D01*
X173111000Y-103571000D02*
X173111000Y-102640000D01*
X173071000Y-100560000D02*
X173071000Y-99596000D01*
X173071000Y-103604000D02*
X173071000Y-102640000D01*
X173031000Y-100560000D02*
X173031000Y-99565000D01*
X173031000Y-103635000D02*
X173031000Y-102640000D01*
X172991000Y-100560000D02*
X172991000Y-99535000D01*
X172991000Y-103665000D02*
X172991000Y-102640000D01*
X172951000Y-100560000D02*
X172951000Y-99505000D01*
X172951000Y-103695000D02*
X172951000Y-102640000D01*
X172911000Y-100560000D02*
X172911000Y-99478000D01*
X172911000Y-103722000D02*
X172911000Y-102640000D01*
X172871000Y-100560000D02*
X172871000Y-99451000D01*
X172871000Y-103749000D02*
X172871000Y-102640000D01*
X172831000Y-100560000D02*
X172831000Y-99425000D01*
X172831000Y-103775000D02*
X172831000Y-102640000D01*
X172791000Y-100560000D02*
X172791000Y-99400000D01*
X172791000Y-103800000D02*
X172791000Y-102640000D01*
X172751000Y-100560000D02*
X172751000Y-99376000D01*
X172751000Y-103824000D02*
X172751000Y-102640000D01*
X172711000Y-100560000D02*
X172711000Y-99353000D01*
X172711000Y-103847000D02*
X172711000Y-102640000D01*
X172671000Y-100560000D02*
X172671000Y-99332000D01*
X172671000Y-103868000D02*
X172671000Y-102640000D01*
X172631000Y-100560000D02*
X172631000Y-99310000D01*
X172631000Y-103890000D02*
X172631000Y-102640000D01*
X172591000Y-100560000D02*
X172591000Y-99290000D01*
X172591000Y-103910000D02*
X172591000Y-102640000D01*
X172551000Y-100560000D02*
X172551000Y-99271000D01*
X172551000Y-103929000D02*
X172551000Y-102640000D01*
X172511000Y-100560000D02*
X172511000Y-99252000D01*
X172511000Y-103948000D02*
X172511000Y-102640000D01*
X172471000Y-100560000D02*
X172471000Y-99235000D01*
X172471000Y-103965000D02*
X172471000Y-102640000D01*
X172431000Y-100560000D02*
X172431000Y-99218000D01*
X172431000Y-103982000D02*
X172431000Y-102640000D01*
X172391000Y-100560000D02*
X172391000Y-99202000D01*
X172391000Y-103998000D02*
X172391000Y-102640000D01*
X172351000Y-100560000D02*
X172351000Y-99186000D01*
X172351000Y-104014000D02*
X172351000Y-102640000D01*
X172311000Y-100560000D02*
X172311000Y-99172000D01*
X172311000Y-104028000D02*
X172311000Y-102640000D01*
X172271000Y-100560000D02*
X172271000Y-99158000D01*
X172271000Y-104042000D02*
X172271000Y-102640000D01*
X172231000Y-100560000D02*
X172231000Y-99145000D01*
X172231000Y-104055000D02*
X172231000Y-102640000D01*
X172191000Y-100560000D02*
X172191000Y-99132000D01*
X172191000Y-104068000D02*
X172191000Y-102640000D01*
X172151000Y-100560000D02*
X172151000Y-99120000D01*
X172151000Y-104080000D02*
X172151000Y-102640000D01*
X172110000Y-100560000D02*
X172110000Y-99109000D01*
X172110000Y-104091000D02*
X172110000Y-102640000D01*
X172070000Y-100560000D02*
X172070000Y-99099000D01*
X172070000Y-104101000D02*
X172070000Y-102640000D01*
X172030000Y-100560000D02*
X172030000Y-99089000D01*
X172030000Y-104111000D02*
X172030000Y-102640000D01*
X171990000Y-100560000D02*
X171990000Y-99080000D01*
X171990000Y-104120000D02*
X171990000Y-102640000D01*
X171950000Y-100560000D02*
X171950000Y-99072000D01*
X171950000Y-104128000D02*
X171950000Y-102640000D01*
X171910000Y-100560000D02*
X171910000Y-99064000D01*
X171910000Y-104136000D02*
X171910000Y-102640000D01*
X171870000Y-100560000D02*
X171870000Y-99057000D01*
X171870000Y-104143000D02*
X171870000Y-102640000D01*
X171830000Y-100560000D02*
X171830000Y-99050000D01*
X171830000Y-104150000D02*
X171830000Y-102640000D01*
X171790000Y-100560000D02*
X171790000Y-99044000D01*
X171790000Y-104156000D02*
X171790000Y-102640000D01*
X171750000Y-100560000D02*
X171750000Y-99039000D01*
X171750000Y-104161000D02*
X171750000Y-102640000D01*
X171710000Y-100560000D02*
X171710000Y-99035000D01*
X171710000Y-104165000D02*
X171710000Y-102640000D01*
X171670000Y-100560000D02*
X171670000Y-99031000D01*
X171670000Y-104169000D02*
X171670000Y-102640000D01*
X171630000Y-104173000D02*
X171630000Y-99027000D01*
X171590000Y-104176000D02*
X171590000Y-99024000D01*
X171550000Y-104178000D02*
X171550000Y-99022000D01*
X171510000Y-104179000D02*
X171510000Y-99021000D01*
X171470000Y-104180000D02*
X171470000Y-99020000D01*
X171430000Y-104180000D02*
X171430000Y-99020000D01*
X174050000Y-101600000D02*
G75*
G03X174050000Y-101600000I-2620000J0D01*
G01*
D14*
G36*
X186256571Y-104406957D02*
G01*
X186280809Y-104503232D01*
X186323641Y-104589816D01*
X186383419Y-104664627D01*
X186458494Y-104725582D01*
X186547220Y-104770601D01*
X186643530Y-104796864D01*
X186740795Y-104802714D01*
X186834654Y-104787860D01*
X186922511Y-104754160D01*
X187001770Y-104703472D01*
X187069836Y-104637655D01*
X187124112Y-104558566D01*
X187162002Y-104468066D01*
X187174426Y-104416800D01*
X187181947Y-104372302D01*
X187184919Y-104338001D01*
X187183094Y-104305040D01*
X187176225Y-104264566D01*
X187169250Y-104231469D01*
X187137741Y-104138053D01*
X187086617Y-104054381D01*
X187017429Y-103982335D01*
X186931728Y-103923800D01*
X186904489Y-103909852D01*
X186868122Y-103893414D01*
X186837582Y-103883106D01*
X186805450Y-103877540D01*
X186764307Y-103875331D01*
X186718222Y-103875052D01*
X186633865Y-103879139D01*
X186564586Y-103892554D01*
X186503961Y-103917744D01*
X186445567Y-103957154D01*
X186401302Y-103995702D01*
X186335484Y-104067594D01*
X186290053Y-104142687D01*
X186262850Y-104225438D01*
X186252576Y-104303072D01*
X186256571Y-104406957D01*
G37*
X186256571Y-104406957D02*
X186280809Y-104503232D01*
X186323641Y-104589816D01*
X186383419Y-104664627D01*
X186458494Y-104725582D01*
X186547220Y-104770601D01*
X186643530Y-104796864D01*
X186740795Y-104802714D01*
X186834654Y-104787860D01*
X186922511Y-104754160D01*
X187001770Y-104703472D01*
X187069836Y-104637655D01*
X187124112Y-104558566D01*
X187162002Y-104468066D01*
X187174426Y-104416800D01*
X187181947Y-104372302D01*
X187184919Y-104338001D01*
X187183094Y-104305040D01*
X187176225Y-104264566D01*
X187169250Y-104231469D01*
X187137741Y-104138053D01*
X187086617Y-104054381D01*
X187017429Y-103982335D01*
X186931728Y-103923800D01*
X186904489Y-103909852D01*
X186868122Y-103893414D01*
X186837582Y-103883106D01*
X186805450Y-103877540D01*
X186764307Y-103875331D01*
X186718222Y-103875052D01*
X186633865Y-103879139D01*
X186564586Y-103892554D01*
X186503961Y-103917744D01*
X186445567Y-103957154D01*
X186401302Y-103995702D01*
X186335484Y-104067594D01*
X186290053Y-104142687D01*
X186262850Y-104225438D01*
X186252576Y-104303072D01*
X186256571Y-104406957D01*
G36*
X188702245Y-112866507D02*
G01*
X188936662Y-112866526D01*
X189149603Y-112866552D01*
X189342168Y-112866625D01*
X189515459Y-112866782D01*
X189670576Y-112867064D01*
X189808620Y-112867509D01*
X189930692Y-112868156D01*
X190037894Y-112869045D01*
X190131326Y-112870213D01*
X190212090Y-112871701D01*
X190281286Y-112873546D01*
X190340015Y-112875789D01*
X190389379Y-112878469D01*
X190430478Y-112881623D01*
X190464413Y-112885292D01*
X190492286Y-112889513D01*
X190515198Y-112894327D01*
X190534249Y-112899773D01*
X190550540Y-112905888D01*
X190565173Y-112912712D01*
X190579249Y-112920285D01*
X190593868Y-112928645D01*
X190602974Y-112933839D01*
X190663689Y-112968104D01*
X190663689Y-112109955D01*
X190567733Y-112109955D01*
X190524370Y-112109224D01*
X190491205Y-112107272D01*
X190473424Y-112104463D01*
X190471778Y-112103221D01*
X190478662Y-112091799D01*
X190496505Y-112069084D01*
X190515879Y-112046385D01*
X190556614Y-111991800D01*
X190597617Y-111922321D01*
X190635123Y-111845270D01*
X190665364Y-111767965D01*
X190675012Y-111737113D01*
X190689578Y-111668616D01*
X190699539Y-111585764D01*
X190704583Y-111496371D01*
X190704396Y-111408248D01*
X190698666Y-111329207D01*
X190692858Y-111291511D01*
X190654797Y-111153414D01*
X190597073Y-111026113D01*
X190520211Y-110910292D01*
X190424739Y-110806637D01*
X190311179Y-110715833D01*
X190200381Y-110649031D01*
X190083625Y-110594164D01*
X189964276Y-110552163D01*
X189838283Y-110522167D01*
X189701594Y-110503311D01*
X189550158Y-110494732D01*
X189472711Y-110494006D01*
X189415934Y-110496100D01*
X189415934Y-111325217D01*
X189509002Y-111325424D01*
X189596692Y-111328337D01*
X189673772Y-111334000D01*
X189735009Y-111342455D01*
X189747350Y-111345038D01*
X189854633Y-111376840D01*
X189941658Y-111418498D01*
X190008642Y-111470363D01*
X190055805Y-111532781D01*
X190083365Y-111606100D01*
X190091541Y-111690669D01*
X190080551Y-111786835D01*
X190064829Y-111850311D01*
X190046639Y-111899454D01*
X190020791Y-111953583D01*
X189997089Y-111994244D01*
X189950721Y-112064800D01*
X188800530Y-112064800D01*
X188756962Y-111997392D01*
X188716040Y-111918867D01*
X188689389Y-111834681D01*
X188677465Y-111749557D01*
X188680722Y-111668216D01*
X188699615Y-111595380D01*
X188715184Y-111563426D01*
X188758181Y-111505501D01*
X188814953Y-111456544D01*
X188887575Y-111415390D01*
X188978121Y-111380874D01*
X189088666Y-111351833D01*
X189094533Y-111350552D01*
X189156788Y-111340381D01*
X189234594Y-111332739D01*
X189322720Y-111327670D01*
X189415934Y-111325217D01*
X189415934Y-110496100D01*
X189259895Y-110501857D01*
X189064059Y-110523802D01*
X188885332Y-110559786D01*
X188723845Y-110609759D01*
X188579726Y-110673668D01*
X188453106Y-110751462D01*
X188344115Y-110843089D01*
X188252883Y-110948497D01*
X188221932Y-110993662D01*
X188165785Y-111094611D01*
X188126174Y-111197901D01*
X188102014Y-111307989D01*
X188092219Y-111429330D01*
X188093265Y-111521836D01*
X188104231Y-111651490D01*
X188126046Y-111764084D01*
X188159714Y-111862875D01*
X188206236Y-111951121D01*
X188240448Y-111999986D01*
X188262362Y-112029353D01*
X188277333Y-112051043D01*
X188281733Y-112059253D01*
X188270904Y-112060868D01*
X188240251Y-112062159D01*
X188192526Y-112063138D01*
X188130479Y-112063817D01*
X188056862Y-112064210D01*
X187974427Y-112064330D01*
X187885925Y-112064188D01*
X187794107Y-112063797D01*
X187701724Y-112063171D01*
X187611528Y-112062320D01*
X187526271Y-112061260D01*
X187448703Y-112060001D01*
X187381576Y-112058556D01*
X187327641Y-112056938D01*
X187289650Y-112055161D01*
X187282667Y-112054669D01*
X187212251Y-112047092D01*
X187157102Y-112035531D01*
X187109981Y-112017792D01*
X187063647Y-111991682D01*
X187054067Y-111985415D01*
X187017378Y-111960983D01*
X187017378Y-112866311D01*
X188702245Y-112866507D01*
G37*
X188702245Y-112866507D02*
X188936662Y-112866526D01*
X189149603Y-112866552D01*
X189342168Y-112866625D01*
X189515459Y-112866782D01*
X189670576Y-112867064D01*
X189808620Y-112867509D01*
X189930692Y-112868156D01*
X190037894Y-112869045D01*
X190131326Y-112870213D01*
X190212090Y-112871701D01*
X190281286Y-112873546D01*
X190340015Y-112875789D01*
X190389379Y-112878469D01*
X190430478Y-112881623D01*
X190464413Y-112885292D01*
X190492286Y-112889513D01*
X190515198Y-112894327D01*
X190534249Y-112899773D01*
X190550540Y-112905888D01*
X190565173Y-112912712D01*
X190579249Y-112920285D01*
X190593868Y-112928645D01*
X190602974Y-112933839D01*
X190663689Y-112968104D01*
X190663689Y-112109955D01*
X190567733Y-112109955D01*
X190524370Y-112109224D01*
X190491205Y-112107272D01*
X190473424Y-112104463D01*
X190471778Y-112103221D01*
X190478662Y-112091799D01*
X190496505Y-112069084D01*
X190515879Y-112046385D01*
X190556614Y-111991800D01*
X190597617Y-111922321D01*
X190635123Y-111845270D01*
X190665364Y-111767965D01*
X190675012Y-111737113D01*
X190689578Y-111668616D01*
X190699539Y-111585764D01*
X190704583Y-111496371D01*
X190704396Y-111408248D01*
X190698666Y-111329207D01*
X190692858Y-111291511D01*
X190654797Y-111153414D01*
X190597073Y-111026113D01*
X190520211Y-110910292D01*
X190424739Y-110806637D01*
X190311179Y-110715833D01*
X190200381Y-110649031D01*
X190083625Y-110594164D01*
X189964276Y-110552163D01*
X189838283Y-110522167D01*
X189701594Y-110503311D01*
X189550158Y-110494732D01*
X189472711Y-110494006D01*
X189415934Y-110496100D01*
X189415934Y-111325217D01*
X189509002Y-111325424D01*
X189596692Y-111328337D01*
X189673772Y-111334000D01*
X189735009Y-111342455D01*
X189747350Y-111345038D01*
X189854633Y-111376840D01*
X189941658Y-111418498D01*
X190008642Y-111470363D01*
X190055805Y-111532781D01*
X190083365Y-111606100D01*
X190091541Y-111690669D01*
X190080551Y-111786835D01*
X190064829Y-111850311D01*
X190046639Y-111899454D01*
X190020791Y-111953583D01*
X189997089Y-111994244D01*
X189950721Y-112064800D01*
X188800530Y-112064800D01*
X188756962Y-111997392D01*
X188716040Y-111918867D01*
X188689389Y-111834681D01*
X188677465Y-111749557D01*
X188680722Y-111668216D01*
X188699615Y-111595380D01*
X188715184Y-111563426D01*
X188758181Y-111505501D01*
X188814953Y-111456544D01*
X188887575Y-111415390D01*
X188978121Y-111380874D01*
X189088666Y-111351833D01*
X189094533Y-111350552D01*
X189156788Y-111340381D01*
X189234594Y-111332739D01*
X189322720Y-111327670D01*
X189415934Y-111325217D01*
X189415934Y-110496100D01*
X189259895Y-110501857D01*
X189064059Y-110523802D01*
X188885332Y-110559786D01*
X188723845Y-110609759D01*
X188579726Y-110673668D01*
X188453106Y-110751462D01*
X188344115Y-110843089D01*
X188252883Y-110948497D01*
X188221932Y-110993662D01*
X188165785Y-111094611D01*
X188126174Y-111197901D01*
X188102014Y-111307989D01*
X188092219Y-111429330D01*
X188093265Y-111521836D01*
X188104231Y-111651490D01*
X188126046Y-111764084D01*
X188159714Y-111862875D01*
X188206236Y-111951121D01*
X188240448Y-111999986D01*
X188262362Y-112029353D01*
X188277333Y-112051043D01*
X188281733Y-112059253D01*
X188270904Y-112060868D01*
X188240251Y-112062159D01*
X188192526Y-112063138D01*
X188130479Y-112063817D01*
X188056862Y-112064210D01*
X187974427Y-112064330D01*
X187885925Y-112064188D01*
X187794107Y-112063797D01*
X187701724Y-112063171D01*
X187611528Y-112062320D01*
X187526271Y-112061260D01*
X187448703Y-112060001D01*
X187381576Y-112058556D01*
X187327641Y-112056938D01*
X187289650Y-112055161D01*
X187282667Y-112054669D01*
X187212251Y-112047092D01*
X187157102Y-112035531D01*
X187109981Y-112017792D01*
X187063647Y-111991682D01*
X187054067Y-111985415D01*
X187017378Y-111960983D01*
X187017378Y-112866311D01*
X188702245Y-112866507D01*
G36*
X188096552Y-109353574D02*
G01*
X188116567Y-109505492D01*
X188150202Y-109640756D01*
X188197725Y-109760239D01*
X188259405Y-109864815D01*
X188322965Y-109942424D01*
X188397099Y-110011265D01*
X188476871Y-110065006D01*
X188569091Y-110107910D01*
X188612161Y-110123384D01*
X188651142Y-110136244D01*
X188687289Y-110147446D01*
X188722434Y-110157120D01*
X188758410Y-110165396D01*
X188797050Y-110172403D01*
X188840185Y-110178272D01*
X188889649Y-110183131D01*
X188947273Y-110187110D01*
X189014891Y-110190340D01*
X189094334Y-110192949D01*
X189187436Y-110195067D01*
X189296027Y-110196824D01*
X189421942Y-110198349D01*
X189567012Y-110199772D01*
X189709778Y-110201025D01*
X189865968Y-110202351D01*
X190001239Y-110203556D01*
X190117246Y-110204766D01*
X190215645Y-110206106D01*
X190298093Y-110207700D01*
X190366246Y-110209675D01*
X190421760Y-110212156D01*
X190466292Y-110215269D01*
X190501498Y-110219138D01*
X190529034Y-110223889D01*
X190550556Y-110229648D01*
X190567722Y-110236539D01*
X190582186Y-110244689D01*
X190595606Y-110254223D01*
X190609638Y-110265266D01*
X190615071Y-110269566D01*
X190637910Y-110285386D01*
X190653463Y-110292422D01*
X190653922Y-110292444D01*
X190656121Y-110281567D01*
X190658147Y-110250582D01*
X190659942Y-110201957D01*
X190661451Y-110138163D01*
X190662616Y-110061669D01*
X190663380Y-109974944D01*
X190663686Y-109880457D01*
X190663689Y-109869550D01*
X190663689Y-109446657D01*
X190567622Y-109443395D01*
X190471556Y-109440133D01*
X190522543Y-109378044D01*
X190590057Y-109280714D01*
X190644749Y-109170813D01*
X190674978Y-109084349D01*
X190689666Y-109015278D01*
X190699659Y-108931925D01*
X190704646Y-108842159D01*
X190704313Y-108753845D01*
X190698351Y-108674851D01*
X190692638Y-108638622D01*
X190654776Y-108498603D01*
X190599932Y-108372178D01*
X190528924Y-108260260D01*
X190442568Y-108163762D01*
X190341679Y-108083600D01*
X190227076Y-108020687D01*
X190100984Y-107976312D01*
X190044401Y-107963978D01*
X189982202Y-107956368D01*
X189907363Y-107952739D01*
X189873467Y-107952245D01*
X189870282Y-107952310D01*
X189870282Y-108712248D01*
X189945333Y-108721541D01*
X190009160Y-108749728D01*
X190064798Y-108798197D01*
X190069211Y-108803254D01*
X190104037Y-108851548D01*
X190126620Y-108903257D01*
X190138540Y-108963989D01*
X190141383Y-109039352D01*
X190140978Y-109057459D01*
X190138325Y-109111278D01*
X190132909Y-109151308D01*
X190122745Y-109186324D01*
X190105850Y-109225103D01*
X190100672Y-109235745D01*
X190064844Y-109296396D01*
X190022212Y-109343215D01*
X190006973Y-109355952D01*
X189950462Y-109400622D01*
X189754586Y-109400622D01*
X189675939Y-109400086D01*
X189617988Y-109398396D01*
X189578875Y-109395428D01*
X189556741Y-109391057D01*
X189550274Y-109386972D01*
X189547111Y-109371047D01*
X189544488Y-109337264D01*
X189542655Y-109290340D01*
X189541857Y-109234993D01*
X189541842Y-109226106D01*
X189547096Y-109105330D01*
X189563263Y-109002660D01*
X189590961Y-108916106D01*
X189630808Y-108843681D01*
X189677758Y-108788751D01*
X189735645Y-108744204D01*
X189798693Y-108719480D01*
X189870282Y-108712248D01*
X189870282Y-107952310D01*
X189779712Y-107954178D01*
X189700812Y-107962522D01*
X189629590Y-107978768D01*
X189558864Y-108004405D01*
X189506493Y-108028401D01*
X189411196Y-108087020D01*
X189323170Y-108165117D01*
X189244017Y-108260315D01*
X189175340Y-108370238D01*
X189118741Y-108492510D01*
X189075821Y-108624755D01*
X189060882Y-108689422D01*
X189038777Y-108825604D01*
X189024194Y-108974049D01*
X189017813Y-109125505D01*
X189019445Y-109252064D01*
X189026224Y-109413950D01*
X188967245Y-109406530D01*
X188868092Y-109387238D01*
X188787372Y-109356104D01*
X188724466Y-109312269D01*
X188678756Y-109254871D01*
X188649622Y-109183048D01*
X188636447Y-109095941D01*
X188638611Y-108992686D01*
X188642612Y-108954711D01*
X188667780Y-108813520D01*
X188708814Y-108676707D01*
X188746815Y-108582178D01*
X188766190Y-108537018D01*
X188781760Y-108498585D01*
X188791405Y-108472234D01*
X188793452Y-108464546D01*
X188784374Y-108454802D01*
X188755405Y-108438083D01*
X188706217Y-108414232D01*
X188636484Y-108383093D01*
X188545879Y-108344507D01*
X188530089Y-108337910D01*
X188457772Y-108307853D01*
X188392425Y-108280874D01*
X188336906Y-108258136D01*
X188294072Y-108240806D01*
X188266781Y-108230048D01*
X188257942Y-108226941D01*
X188253187Y-108236940D01*
X188247910Y-108263217D01*
X188244231Y-108291489D01*
X188239474Y-108321646D01*
X188230028Y-108369433D01*
X188216820Y-108430612D01*
X188200776Y-108500946D01*
X188182820Y-108576194D01*
X188175797Y-108604755D01*
X188150209Y-108709816D01*
X188130147Y-108797480D01*
X188114969Y-108872068D01*
X188104035Y-108937903D01*
X188096704Y-108999307D01*
X188092335Y-109060602D01*
X188090287Y-109126110D01*
X188089889Y-109184128D01*
X188096552Y-109353574D01*
G37*
X188096552Y-109353574D02*
X188116567Y-109505492D01*
X188150202Y-109640756D01*
X188197725Y-109760239D01*
X188259405Y-109864815D01*
X188322965Y-109942424D01*
X188397099Y-110011265D01*
X188476871Y-110065006D01*
X188569091Y-110107910D01*
X188612161Y-110123384D01*
X188651142Y-110136244D01*
X188687289Y-110147446D01*
X188722434Y-110157120D01*
X188758410Y-110165396D01*
X188797050Y-110172403D01*
X188840185Y-110178272D01*
X188889649Y-110183131D01*
X188947273Y-110187110D01*
X189014891Y-110190340D01*
X189094334Y-110192949D01*
X189187436Y-110195067D01*
X189296027Y-110196824D01*
X189421942Y-110198349D01*
X189567012Y-110199772D01*
X189709778Y-110201025D01*
X189865968Y-110202351D01*
X190001239Y-110203556D01*
X190117246Y-110204766D01*
X190215645Y-110206106D01*
X190298093Y-110207700D01*
X190366246Y-110209675D01*
X190421760Y-110212156D01*
X190466292Y-110215269D01*
X190501498Y-110219138D01*
X190529034Y-110223889D01*
X190550556Y-110229648D01*
X190567722Y-110236539D01*
X190582186Y-110244689D01*
X190595606Y-110254223D01*
X190609638Y-110265266D01*
X190615071Y-110269566D01*
X190637910Y-110285386D01*
X190653463Y-110292422D01*
X190653922Y-110292444D01*
X190656121Y-110281567D01*
X190658147Y-110250582D01*
X190659942Y-110201957D01*
X190661451Y-110138163D01*
X190662616Y-110061669D01*
X190663380Y-109974944D01*
X190663686Y-109880457D01*
X190663689Y-109869550D01*
X190663689Y-109446657D01*
X190567622Y-109443395D01*
X190471556Y-109440133D01*
X190522543Y-109378044D01*
X190590057Y-109280714D01*
X190644749Y-109170813D01*
X190674978Y-109084349D01*
X190689666Y-109015278D01*
X190699659Y-108931925D01*
X190704646Y-108842159D01*
X190704313Y-108753845D01*
X190698351Y-108674851D01*
X190692638Y-108638622D01*
X190654776Y-108498603D01*
X190599932Y-108372178D01*
X190528924Y-108260260D01*
X190442568Y-108163762D01*
X190341679Y-108083600D01*
X190227076Y-108020687D01*
X190100984Y-107976312D01*
X190044401Y-107963978D01*
X189982202Y-107956368D01*
X189907363Y-107952739D01*
X189873467Y-107952245D01*
X189870282Y-107952310D01*
X189870282Y-108712248D01*
X189945333Y-108721541D01*
X190009160Y-108749728D01*
X190064798Y-108798197D01*
X190069211Y-108803254D01*
X190104037Y-108851548D01*
X190126620Y-108903257D01*
X190138540Y-108963989D01*
X190141383Y-109039352D01*
X190140978Y-109057459D01*
X190138325Y-109111278D01*
X190132909Y-109151308D01*
X190122745Y-109186324D01*
X190105850Y-109225103D01*
X190100672Y-109235745D01*
X190064844Y-109296396D01*
X190022212Y-109343215D01*
X190006973Y-109355952D01*
X189950462Y-109400622D01*
X189754586Y-109400622D01*
X189675939Y-109400086D01*
X189617988Y-109398396D01*
X189578875Y-109395428D01*
X189556741Y-109391057D01*
X189550274Y-109386972D01*
X189547111Y-109371047D01*
X189544488Y-109337264D01*
X189542655Y-109290340D01*
X189541857Y-109234993D01*
X189541842Y-109226106D01*
X189547096Y-109105330D01*
X189563263Y-109002660D01*
X189590961Y-108916106D01*
X189630808Y-108843681D01*
X189677758Y-108788751D01*
X189735645Y-108744204D01*
X189798693Y-108719480D01*
X189870282Y-108712248D01*
X189870282Y-107952310D01*
X189779712Y-107954178D01*
X189700812Y-107962522D01*
X189629590Y-107978768D01*
X189558864Y-108004405D01*
X189506493Y-108028401D01*
X189411196Y-108087020D01*
X189323170Y-108165117D01*
X189244017Y-108260315D01*
X189175340Y-108370238D01*
X189118741Y-108492510D01*
X189075821Y-108624755D01*
X189060882Y-108689422D01*
X189038777Y-108825604D01*
X189024194Y-108974049D01*
X189017813Y-109125505D01*
X189019445Y-109252064D01*
X189026224Y-109413950D01*
X188967245Y-109406530D01*
X188868092Y-109387238D01*
X188787372Y-109356104D01*
X188724466Y-109312269D01*
X188678756Y-109254871D01*
X188649622Y-109183048D01*
X188636447Y-109095941D01*
X188638611Y-108992686D01*
X188642612Y-108954711D01*
X188667780Y-108813520D01*
X188708814Y-108676707D01*
X188746815Y-108582178D01*
X188766190Y-108537018D01*
X188781760Y-108498585D01*
X188791405Y-108472234D01*
X188793452Y-108464546D01*
X188784374Y-108454802D01*
X188755405Y-108438083D01*
X188706217Y-108414232D01*
X188636484Y-108383093D01*
X188545879Y-108344507D01*
X188530089Y-108337910D01*
X188457772Y-108307853D01*
X188392425Y-108280874D01*
X188336906Y-108258136D01*
X188294072Y-108240806D01*
X188266781Y-108230048D01*
X188257942Y-108226941D01*
X188253187Y-108236940D01*
X188247910Y-108263217D01*
X188244231Y-108291489D01*
X188239474Y-108321646D01*
X188230028Y-108369433D01*
X188216820Y-108430612D01*
X188200776Y-108500946D01*
X188182820Y-108576194D01*
X188175797Y-108604755D01*
X188150209Y-108709816D01*
X188130147Y-108797480D01*
X188114969Y-108872068D01*
X188104035Y-108937903D01*
X188096704Y-108999307D01*
X188092335Y-109060602D01*
X188090287Y-109126110D01*
X188089889Y-109184128D01*
X188096552Y-109353574D01*
G36*
X187179071Y-107008429D02*
G01*
X187200245Y-107168570D01*
X187240385Y-107332510D01*
X187299889Y-107502313D01*
X187379154Y-107680043D01*
X187384699Y-107691310D01*
X187412725Y-107749005D01*
X187436802Y-107800552D01*
X187455249Y-107842191D01*
X187466386Y-107870162D01*
X187468933Y-107879733D01*
X187473941Y-107898950D01*
X187478147Y-107903561D01*
X187488580Y-107898458D01*
X187514868Y-107882418D01*
X187554257Y-107857288D01*
X187603991Y-107824914D01*
X187661315Y-107787143D01*
X187723476Y-107745822D01*
X187787718Y-107702798D01*
X187851285Y-107659917D01*
X187911425Y-107619026D01*
X187965380Y-107581971D01*
X188010397Y-107550600D01*
X188043721Y-107526759D01*
X188062597Y-107512294D01*
X188064787Y-107510309D01*
X188060138Y-107500191D01*
X188042962Y-107477850D01*
X188016440Y-107447280D01*
X188001964Y-107431536D01*
X187926682Y-107335047D01*
X187871241Y-107228336D01*
X187836141Y-107112832D01*
X187821880Y-106989962D01*
X187823051Y-106920561D01*
X187840212Y-106799423D01*
X187876094Y-106690205D01*
X187930959Y-106592582D01*
X188005070Y-106506228D01*
X188098688Y-106430815D01*
X188212076Y-106366018D01*
X188298667Y-106328601D01*
X188434366Y-106284748D01*
X188581850Y-106252428D01*
X188737314Y-106231557D01*
X188896956Y-106222051D01*
X189056973Y-106223827D01*
X189213561Y-106236803D01*
X189362918Y-106260894D01*
X189501240Y-106296018D01*
X189624724Y-106342092D01*
X189658978Y-106358373D01*
X189773064Y-106426620D01*
X189869557Y-106507079D01*
X189947670Y-106598570D01*
X190006617Y-106699911D01*
X190045612Y-106809920D01*
X190063868Y-106927415D01*
X190065211Y-106968883D01*
X190054290Y-107090441D01*
X190021474Y-107210878D01*
X189967439Y-107328666D01*
X189892865Y-107442277D01*
X189814539Y-107533685D01*
X189770008Y-107580215D01*
X190067271Y-107761483D01*
X190141433Y-107806580D01*
X190209646Y-107847819D01*
X190269459Y-107883735D01*
X190318420Y-107912866D01*
X190354079Y-107933750D01*
X190373984Y-107944924D01*
X190377079Y-107946375D01*
X190386718Y-107938146D01*
X190403999Y-107912567D01*
X190427283Y-107872873D01*
X190454934Y-107822297D01*
X190485315Y-107764074D01*
X190516790Y-107701437D01*
X190547722Y-107637621D01*
X190576473Y-107575860D01*
X190601408Y-107519388D01*
X190620889Y-107471438D01*
X190629318Y-107447986D01*
X190667133Y-107314221D01*
X190692136Y-107176327D01*
X190705140Y-107028622D01*
X190707468Y-106901833D01*
X190706373Y-106833878D01*
X190704275Y-106768277D01*
X190701434Y-106710847D01*
X190698106Y-106667403D01*
X190696422Y-106653298D01*
X190667587Y-106514284D01*
X190622468Y-106372757D01*
X190563750Y-106235275D01*
X190494120Y-106108394D01*
X190441441Y-106030889D01*
X190333239Y-105903481D01*
X190206671Y-105785178D01*
X190064866Y-105678172D01*
X189910951Y-105584652D01*
X189748053Y-105506810D01*
X189630756Y-105462956D01*
X189447128Y-105412708D01*
X189252581Y-105379209D01*
X189051325Y-105362449D01*
X188847568Y-105362416D01*
X188645521Y-105379101D01*
X188449392Y-105412493D01*
X188263391Y-105462580D01*
X188251803Y-105466397D01*
X188089750Y-105529281D01*
X187941832Y-105606028D01*
X187803865Y-105699242D01*
X187671661Y-105811527D01*
X187626399Y-105855392D01*
X187502457Y-105991534D01*
X187399915Y-106131491D01*
X187317656Y-106277411D01*
X187254564Y-106431442D01*
X187209523Y-106595732D01*
X187192033Y-106691289D01*
X187176466Y-106850023D01*
X187179071Y-107008429D01*
G37*
X187179071Y-107008429D02*
X187200245Y-107168570D01*
X187240385Y-107332510D01*
X187299889Y-107502313D01*
X187379154Y-107680043D01*
X187384699Y-107691310D01*
X187412725Y-107749005D01*
X187436802Y-107800552D01*
X187455249Y-107842191D01*
X187466386Y-107870162D01*
X187468933Y-107879733D01*
X187473941Y-107898950D01*
X187478147Y-107903561D01*
X187488580Y-107898458D01*
X187514868Y-107882418D01*
X187554257Y-107857288D01*
X187603991Y-107824914D01*
X187661315Y-107787143D01*
X187723476Y-107745822D01*
X187787718Y-107702798D01*
X187851285Y-107659917D01*
X187911425Y-107619026D01*
X187965380Y-107581971D01*
X188010397Y-107550600D01*
X188043721Y-107526759D01*
X188062597Y-107512294D01*
X188064787Y-107510309D01*
X188060138Y-107500191D01*
X188042962Y-107477850D01*
X188016440Y-107447280D01*
X188001964Y-107431536D01*
X187926682Y-107335047D01*
X187871241Y-107228336D01*
X187836141Y-107112832D01*
X187821880Y-106989962D01*
X187823051Y-106920561D01*
X187840212Y-106799423D01*
X187876094Y-106690205D01*
X187930959Y-106592582D01*
X188005070Y-106506228D01*
X188098688Y-106430815D01*
X188212076Y-106366018D01*
X188298667Y-106328601D01*
X188434366Y-106284748D01*
X188581850Y-106252428D01*
X188737314Y-106231557D01*
X188896956Y-106222051D01*
X189056973Y-106223827D01*
X189213561Y-106236803D01*
X189362918Y-106260894D01*
X189501240Y-106296018D01*
X189624724Y-106342092D01*
X189658978Y-106358373D01*
X189773064Y-106426620D01*
X189869557Y-106507079D01*
X189947670Y-106598570D01*
X190006617Y-106699911D01*
X190045612Y-106809920D01*
X190063868Y-106927415D01*
X190065211Y-106968883D01*
X190054290Y-107090441D01*
X190021474Y-107210878D01*
X189967439Y-107328666D01*
X189892865Y-107442277D01*
X189814539Y-107533685D01*
X189770008Y-107580215D01*
X190067271Y-107761483D01*
X190141433Y-107806580D01*
X190209646Y-107847819D01*
X190269459Y-107883735D01*
X190318420Y-107912866D01*
X190354079Y-107933750D01*
X190373984Y-107944924D01*
X190377079Y-107946375D01*
X190386718Y-107938146D01*
X190403999Y-107912567D01*
X190427283Y-107872873D01*
X190454934Y-107822297D01*
X190485315Y-107764074D01*
X190516790Y-107701437D01*
X190547722Y-107637621D01*
X190576473Y-107575860D01*
X190601408Y-107519388D01*
X190620889Y-107471438D01*
X190629318Y-107447986D01*
X190667133Y-107314221D01*
X190692136Y-107176327D01*
X190705140Y-107028622D01*
X190707468Y-106901833D01*
X190706373Y-106833878D01*
X190704275Y-106768277D01*
X190701434Y-106710847D01*
X190698106Y-106667403D01*
X190696422Y-106653298D01*
X190667587Y-106514284D01*
X190622468Y-106372757D01*
X190563750Y-106235275D01*
X190494120Y-106108394D01*
X190441441Y-106030889D01*
X190333239Y-105903481D01*
X190206671Y-105785178D01*
X190064866Y-105678172D01*
X189910951Y-105584652D01*
X189748053Y-105506810D01*
X189630756Y-105462956D01*
X189447128Y-105412708D01*
X189252581Y-105379209D01*
X189051325Y-105362449D01*
X188847568Y-105362416D01*
X188645521Y-105379101D01*
X188449392Y-105412493D01*
X188263391Y-105462580D01*
X188251803Y-105466397D01*
X188089750Y-105529281D01*
X187941832Y-105606028D01*
X187803865Y-105699242D01*
X187671661Y-105811527D01*
X187626399Y-105855392D01*
X187502457Y-105991534D01*
X187399915Y-106131491D01*
X187317656Y-106277411D01*
X187254564Y-106431442D01*
X187209523Y-106595732D01*
X187192033Y-106691289D01*
X187176466Y-106850023D01*
X187179071Y-107008429D01*
G36*
X186719054Y-103733600D02*
G01*
X186832993Y-103744465D01*
X186940616Y-103776082D01*
X187039615Y-103826985D01*
X187127684Y-103895707D01*
X187202516Y-103980781D01*
X187260384Y-104077768D01*
X187300005Y-104184036D01*
X187318573Y-104291050D01*
X187317434Y-104396700D01*
X187297930Y-104498875D01*
X187261406Y-104595466D01*
X187209205Y-104684362D01*
X187142673Y-104763454D01*
X187063152Y-104830631D01*
X186971987Y-104883783D01*
X186870523Y-104920801D01*
X186760102Y-104939573D01*
X186710206Y-104941511D01*
X186622267Y-104941511D01*
X186622267Y-104993440D01*
X186625111Y-105029747D01*
X186636911Y-105056645D01*
X186660649Y-105083751D01*
X186699031Y-105122133D01*
X188890602Y-105122133D01*
X189152739Y-105122124D01*
X189393241Y-105122092D01*
X189613048Y-105122028D01*
X189813101Y-105121924D01*
X189994344Y-105121773D01*
X190157716Y-105121566D01*
X190304160Y-105121294D01*
X190434617Y-105120950D01*
X190550029Y-105120526D01*
X190651338Y-105120013D01*
X190739484Y-105119403D01*
X190815410Y-105118688D01*
X190880057Y-105117860D01*
X190934367Y-105116911D01*
X190979280Y-105115833D01*
X191015740Y-105114617D01*
X191044687Y-105113255D01*
X191067063Y-105111739D01*
X191083809Y-105110062D01*
X191095868Y-105108214D01*
X191104180Y-105106187D01*
X191109687Y-105103975D01*
X191111537Y-105102892D01*
X191118549Y-105098729D01*
X191124996Y-105095195D01*
X191130900Y-105091365D01*
X191136286Y-105086318D01*
X191141178Y-105079129D01*
X191145598Y-105068877D01*
X191149572Y-105054636D01*
X191153121Y-105035486D01*
X191156270Y-105010501D01*
X191159042Y-104978760D01*
X191161461Y-104939338D01*
X191163551Y-104891314D01*
X191165335Y-104833763D01*
X191166837Y-104765763D01*
X191168080Y-104686390D01*
X191169089Y-104594721D01*
X191169885Y-104489834D01*
X191170494Y-104370804D01*
X191170939Y-104236710D01*
X191171243Y-104086627D01*
X191171430Y-103919633D01*
X191171524Y-103734804D01*
X191171548Y-103531217D01*
X191171525Y-103307950D01*
X191171480Y-103064078D01*
X191171437Y-102798679D01*
X191171432Y-102760296D01*
X191171389Y-102493318D01*
X191171318Y-102247998D01*
X191171213Y-102023417D01*
X191171066Y-101818655D01*
X191170869Y-101632794D01*
X191170616Y-101464912D01*
X191170300Y-101314092D01*
X191169913Y-101179413D01*
X191169447Y-101059956D01*
X191168897Y-100954801D01*
X191168253Y-100863029D01*
X191167511Y-100783721D01*
X191166661Y-100715957D01*
X191165697Y-100658818D01*
X191164611Y-100611383D01*
X191163397Y-100572734D01*
X191162047Y-100541951D01*
X191160555Y-100518115D01*
X191158911Y-100500306D01*
X191157111Y-100487605D01*
X191155145Y-100479092D01*
X191153477Y-100474734D01*
X191149906Y-100466272D01*
X191147270Y-100458503D01*
X191144634Y-100451398D01*
X191141062Y-100444927D01*
X191135621Y-100439061D01*
X191127375Y-100433771D01*
X191115390Y-100429026D01*
X191098731Y-100424798D01*
X191076463Y-100421057D01*
X191047652Y-100417773D01*
X191011363Y-100414917D01*
X190966661Y-100412460D01*
X190912611Y-100410371D01*
X190848279Y-100408622D01*
X190772730Y-100407183D01*
X190685030Y-100406024D01*
X190584243Y-100405117D01*
X190469434Y-100404431D01*
X190339670Y-100403937D01*
X190194015Y-100403605D01*
X190031535Y-100403407D01*
X189851295Y-100403313D01*
X189652360Y-100403292D01*
X189433796Y-100403315D01*
X189194668Y-100403354D01*
X188934040Y-100403378D01*
X188891889Y-100403378D01*
X188628992Y-100403364D01*
X188387732Y-100403339D01*
X188167165Y-100403329D01*
X187966352Y-100403358D01*
X187784349Y-100403452D01*
X187620216Y-100403638D01*
X187473011Y-100403941D01*
X187341792Y-100404386D01*
X187231867Y-100404966D01*
X187231867Y-100707803D01*
X187289711Y-100747593D01*
X187305479Y-100758764D01*
X187319441Y-100768834D01*
X187332784Y-100777862D01*
X187346693Y-100785903D01*
X187362356Y-100793014D01*
X187380958Y-100799253D01*
X187403686Y-100804675D01*
X187431727Y-100809338D01*
X187466267Y-100813299D01*
X187508492Y-100816615D01*
X187559589Y-100819341D01*
X187620744Y-100821536D01*
X187693144Y-100823255D01*
X187777975Y-100824556D01*
X187876422Y-100825495D01*
X187989674Y-100826130D01*
X188118916Y-100826516D01*
X188265334Y-100826712D01*
X188430116Y-100826773D01*
X188614447Y-100826757D01*
X188819513Y-100826720D01*
X188942133Y-100826711D01*
X189159082Y-100826735D01*
X189354642Y-100826769D01*
X189529999Y-100826757D01*
X189686341Y-100826642D01*
X189824857Y-100826370D01*
X189946734Y-100825882D01*
X190053160Y-100825124D01*
X190145322Y-100824038D01*
X190224409Y-100822569D01*
X190291608Y-100820660D01*
X190348107Y-100818256D01*
X190395093Y-100815299D01*
X190433755Y-100811734D01*
X190465280Y-100807505D01*
X190490855Y-100802554D01*
X190511670Y-100796827D01*
X190528911Y-100790267D01*
X190543765Y-100782817D01*
X190557422Y-100774421D01*
X190571069Y-100765024D01*
X190585893Y-100754568D01*
X190594783Y-100748477D01*
X190652400Y-100709704D01*
X190652400Y-101241268D01*
X190652365Y-101364517D01*
X190652215Y-101467013D01*
X190651878Y-101550580D01*
X190651286Y-101617044D01*
X190650367Y-101668229D01*
X190649051Y-101705959D01*
X190647269Y-101732060D01*
X190644951Y-101748356D01*
X190642026Y-101756672D01*
X190638424Y-101758832D01*
X190634075Y-101756661D01*
X190632645Y-101755465D01*
X190595573Y-101730315D01*
X190542772Y-101704417D01*
X190480770Y-101680808D01*
X190454357Y-101672539D01*
X190436416Y-101667922D01*
X190415355Y-101664021D01*
X190389089Y-101660752D01*
X190355532Y-101658034D01*
X190312599Y-101655785D01*
X190258204Y-101653923D01*
X190190262Y-101652364D01*
X190106688Y-101651028D01*
X190005395Y-101649831D01*
X189884300Y-101648692D01*
X189839600Y-101648315D01*
X189714449Y-101647298D01*
X189610082Y-101646540D01*
X189524707Y-101646097D01*
X189456533Y-101646030D01*
X189403765Y-101646395D01*
X189364614Y-101647252D01*
X189337285Y-101648659D01*
X189319986Y-101650675D01*
X189310926Y-101653357D01*
X189308312Y-101656764D01*
X189310351Y-101660956D01*
X189314667Y-101665429D01*
X189327602Y-101675784D01*
X189356676Y-101697842D01*
X189399759Y-101730043D01*
X189454718Y-101770826D01*
X189519423Y-101818630D01*
X189591742Y-101871895D01*
X189669544Y-101929060D01*
X189750698Y-101988563D01*
X189833072Y-102048845D01*
X189914536Y-102108345D01*
X189992957Y-102165502D01*
X190066204Y-102218755D01*
X190132147Y-102266543D01*
X190188654Y-102307307D01*
X190233593Y-102339484D01*
X190264834Y-102361515D01*
X190271466Y-102366083D01*
X190308369Y-102389004D01*
X190356359Y-102415812D01*
X190405897Y-102441211D01*
X190412577Y-102444432D01*
X190460772Y-102466110D01*
X190498334Y-102478696D01*
X190534160Y-102484426D01*
X190576200Y-102485544D01*
X190652400Y-102484910D01*
X190652400Y-103639349D01*
X190558669Y-103548185D01*
X190508775Y-103501388D01*
X190452295Y-103451101D01*
X190398026Y-103405056D01*
X190372673Y-103384631D01*
X190333128Y-103354193D01*
X190279916Y-103314138D01*
X190214667Y-103265639D01*
X190139011Y-103209865D01*
X190054577Y-103147989D01*
X189962994Y-103081181D01*
X189865892Y-103010613D01*
X189764901Y-102937455D01*
X189661650Y-102862879D01*
X189557768Y-102788056D01*
X189454885Y-102714157D01*
X189354631Y-102642354D01*
X189258636Y-102573816D01*
X189168527Y-102509716D01*
X189085936Y-102451225D01*
X189012492Y-102399514D01*
X188949824Y-102355753D01*
X188899561Y-102321115D01*
X188863334Y-102296770D01*
X188842771Y-102283889D01*
X188838668Y-102282131D01*
X188827342Y-102290090D01*
X188800162Y-102310885D01*
X188758829Y-102343153D01*
X188705044Y-102385530D01*
X188640506Y-102436653D01*
X188566918Y-102495159D01*
X188485978Y-102559686D01*
X188399388Y-102628869D01*
X188308848Y-102701347D01*
X188216060Y-102775754D01*
X188141702Y-102835483D01*
X188141702Y-103846489D01*
X188154659Y-103852398D01*
X188176908Y-103866728D01*
X188178391Y-103867775D01*
X188208544Y-103886562D01*
X188245375Y-103906209D01*
X188253511Y-103910108D01*
X188261940Y-103913644D01*
X188272059Y-103916770D01*
X188285260Y-103919514D01*
X188302938Y-103921908D01*
X188326484Y-103923981D01*
X188357293Y-103925765D01*
X188396757Y-103927288D01*
X188446269Y-103928581D01*
X188507223Y-103929674D01*
X188581011Y-103930597D01*
X188669028Y-103931381D01*
X188772665Y-103932055D01*
X188893316Y-103932650D01*
X189032374Y-103933195D01*
X189191232Y-103933721D01*
X189370089Y-103934255D01*
X189555207Y-103934794D01*
X189719145Y-103935228D01*
X189863303Y-103935491D01*
X189989079Y-103935516D01*
X190097871Y-103935235D01*
X190191077Y-103934581D01*
X190270097Y-103933486D01*
X190336328Y-103931882D01*
X190391170Y-103929703D01*
X190436021Y-103926881D01*
X190472278Y-103923349D01*
X190501341Y-103919039D01*
X190524609Y-103913883D01*
X190543479Y-103907815D01*
X190559351Y-103900767D01*
X190573622Y-103892671D01*
X190587691Y-103883460D01*
X190600158Y-103874960D01*
X190626452Y-103857824D01*
X190644037Y-103847678D01*
X190647257Y-103846489D01*
X190648334Y-103857396D01*
X190649335Y-103888589D01*
X190650235Y-103937777D01*
X190651010Y-104002667D01*
X190651637Y-104080970D01*
X190652091Y-104170393D01*
X190652349Y-104268644D01*
X190652400Y-104337555D01*
X190652180Y-104442548D01*
X190651548Y-104539390D01*
X190650549Y-104625893D01*
X190649227Y-104699868D01*
X190647626Y-104759126D01*
X190645791Y-104801480D01*
X190643765Y-104824740D01*
X190642493Y-104828622D01*
X190627591Y-104820924D01*
X190619560Y-104812926D01*
X190602434Y-104799754D01*
X190572183Y-104782515D01*
X190547622Y-104770593D01*
X190488711Y-104743955D01*
X189311845Y-104740880D01*
X188134978Y-104737805D01*
X188134978Y-104292147D01*
X188135142Y-104194330D01*
X188135611Y-104103936D01*
X188136347Y-104023370D01*
X188137316Y-103955038D01*
X188138480Y-103901344D01*
X188139803Y-103864695D01*
X188141249Y-103847496D01*
X188141702Y-103846489D01*
X188141702Y-102835483D01*
X188122722Y-102850730D01*
X188030537Y-102924910D01*
X187941204Y-102996931D01*
X187856424Y-103065431D01*
X187777898Y-103129045D01*
X187707326Y-103186412D01*
X187646409Y-103236167D01*
X187596847Y-103276948D01*
X187576178Y-103294112D01*
X187475516Y-103380404D01*
X187392259Y-103457003D01*
X187324438Y-103525817D01*
X187270089Y-103588752D01*
X187262722Y-103598133D01*
X187232117Y-103637644D01*
X187231867Y-102505884D01*
X187279844Y-102511173D01*
X187337188Y-102507870D01*
X187405463Y-102486339D01*
X187485212Y-102446365D01*
X187557495Y-102401057D01*
X187580140Y-102384839D01*
X187617696Y-102356786D01*
X187668021Y-102318570D01*
X187728973Y-102271863D01*
X187798411Y-102218339D01*
X187874194Y-102159669D01*
X187954180Y-102097525D01*
X188036228Y-102033579D01*
X188118196Y-101969505D01*
X188197943Y-101906973D01*
X188273327Y-101847657D01*
X188342207Y-101793229D01*
X188402442Y-101745361D01*
X188451889Y-101705725D01*
X188488408Y-101675994D01*
X188509858Y-101657839D01*
X188513156Y-101654780D01*
X188505149Y-101651921D01*
X188474855Y-101649707D01*
X188422556Y-101648143D01*
X188348531Y-101647233D01*
X188253063Y-101646980D01*
X188136434Y-101647387D01*
X188016445Y-101648296D01*
X187884333Y-101649618D01*
X187772594Y-101651143D01*
X187679025Y-101653119D01*
X187601419Y-101655794D01*
X187537574Y-101659418D01*
X187485283Y-101664239D01*
X187442344Y-101670506D01*
X187406551Y-101678468D01*
X187375700Y-101688373D01*
X187347586Y-101700469D01*
X187320005Y-101715007D01*
X187294966Y-101729689D01*
X187231867Y-101767686D01*
X187231867Y-100707803D01*
X187231867Y-100404966D01*
X187225617Y-100404999D01*
X187123544Y-100405805D01*
X187034633Y-100406830D01*
X186957941Y-100408100D01*
X186892527Y-100409640D01*
X186837449Y-100411476D01*
X186791765Y-100413633D01*
X186754534Y-100416137D01*
X186724813Y-100419013D01*
X186701662Y-100422287D01*
X186684139Y-100425985D01*
X186671301Y-100430131D01*
X186662208Y-100434753D01*
X186655918Y-100439874D01*
X186651488Y-100445522D01*
X186647978Y-100451721D01*
X186644445Y-100458496D01*
X186640876Y-100464492D01*
X186638300Y-100469725D01*
X186635972Y-100477901D01*
X186633878Y-100490114D01*
X186632007Y-100507459D01*
X186630347Y-100531031D01*
X186628884Y-100561923D01*
X186627608Y-100601232D01*
X186626504Y-100650050D01*
X186625561Y-100709473D01*
X186624767Y-100780596D01*
X186624109Y-100864512D01*
X186623575Y-100962317D01*
X186623153Y-101075106D01*
X186622829Y-101203971D01*
X186622592Y-101350009D01*
X186622430Y-101514314D01*
X186622330Y-101697980D01*
X186622280Y-101902103D01*
X186622267Y-102113247D01*
X186622267Y-103733600D01*
X186719054Y-103733600D01*
G37*
X186719054Y-103733600D02*
X186832993Y-103744465D01*
X186940616Y-103776082D01*
X187039615Y-103826985D01*
X187127684Y-103895707D01*
X187202516Y-103980781D01*
X187260384Y-104077768D01*
X187300005Y-104184036D01*
X187318573Y-104291050D01*
X187317434Y-104396700D01*
X187297930Y-104498875D01*
X187261406Y-104595466D01*
X187209205Y-104684362D01*
X187142673Y-104763454D01*
X187063152Y-104830631D01*
X186971987Y-104883783D01*
X186870523Y-104920801D01*
X186760102Y-104939573D01*
X186710206Y-104941511D01*
X186622267Y-104941511D01*
X186622267Y-104993440D01*
X186625111Y-105029747D01*
X186636911Y-105056645D01*
X186660649Y-105083751D01*
X186699031Y-105122133D01*
X188890602Y-105122133D01*
X189152739Y-105122124D01*
X189393241Y-105122092D01*
X189613048Y-105122028D01*
X189813101Y-105121924D01*
X189994344Y-105121773D01*
X190157716Y-105121566D01*
X190304160Y-105121294D01*
X190434617Y-105120950D01*
X190550029Y-105120526D01*
X190651338Y-105120013D01*
X190739484Y-105119403D01*
X190815410Y-105118688D01*
X190880057Y-105117860D01*
X190934367Y-105116911D01*
X190979280Y-105115833D01*
X191015740Y-105114617D01*
X191044687Y-105113255D01*
X191067063Y-105111739D01*
X191083809Y-105110062D01*
X191095868Y-105108214D01*
X191104180Y-105106187D01*
X191109687Y-105103975D01*
X191111537Y-105102892D01*
X191118549Y-105098729D01*
X191124996Y-105095195D01*
X191130900Y-105091365D01*
X191136286Y-105086318D01*
X191141178Y-105079129D01*
X191145598Y-105068877D01*
X191149572Y-105054636D01*
X191153121Y-105035486D01*
X191156270Y-105010501D01*
X191159042Y-104978760D01*
X191161461Y-104939338D01*
X191163551Y-104891314D01*
X191165335Y-104833763D01*
X191166837Y-104765763D01*
X191168080Y-104686390D01*
X191169089Y-104594721D01*
X191169885Y-104489834D01*
X191170494Y-104370804D01*
X191170939Y-104236710D01*
X191171243Y-104086627D01*
X191171430Y-103919633D01*
X191171524Y-103734804D01*
X191171548Y-103531217D01*
X191171525Y-103307950D01*
X191171480Y-103064078D01*
X191171437Y-102798679D01*
X191171432Y-102760296D01*
X191171389Y-102493318D01*
X191171318Y-102247998D01*
X191171213Y-102023417D01*
X191171066Y-101818655D01*
X191170869Y-101632794D01*
X191170616Y-101464912D01*
X191170300Y-101314092D01*
X191169913Y-101179413D01*
X191169447Y-101059956D01*
X191168897Y-100954801D01*
X191168253Y-100863029D01*
X191167511Y-100783721D01*
X191166661Y-100715957D01*
X191165697Y-100658818D01*
X191164611Y-100611383D01*
X191163397Y-100572734D01*
X191162047Y-100541951D01*
X191160555Y-100518115D01*
X191158911Y-100500306D01*
X191157111Y-100487605D01*
X191155145Y-100479092D01*
X191153477Y-100474734D01*
X191149906Y-100466272D01*
X191147270Y-100458503D01*
X191144634Y-100451398D01*
X191141062Y-100444927D01*
X191135621Y-100439061D01*
X191127375Y-100433771D01*
X191115390Y-100429026D01*
X191098731Y-100424798D01*
X191076463Y-100421057D01*
X191047652Y-100417773D01*
X191011363Y-100414917D01*
X190966661Y-100412460D01*
X190912611Y-100410371D01*
X190848279Y-100408622D01*
X190772730Y-100407183D01*
X190685030Y-100406024D01*
X190584243Y-100405117D01*
X190469434Y-100404431D01*
X190339670Y-100403937D01*
X190194015Y-100403605D01*
X190031535Y-100403407D01*
X189851295Y-100403313D01*
X189652360Y-100403292D01*
X189433796Y-100403315D01*
X189194668Y-100403354D01*
X188934040Y-100403378D01*
X188891889Y-100403378D01*
X188628992Y-100403364D01*
X188387732Y-100403339D01*
X188167165Y-100403329D01*
X187966352Y-100403358D01*
X187784349Y-100403452D01*
X187620216Y-100403638D01*
X187473011Y-100403941D01*
X187341792Y-100404386D01*
X187231867Y-100404966D01*
X187231867Y-100707803D01*
X187289711Y-100747593D01*
X187305479Y-100758764D01*
X187319441Y-100768834D01*
X187332784Y-100777862D01*
X187346693Y-100785903D01*
X187362356Y-100793014D01*
X187380958Y-100799253D01*
X187403686Y-100804675D01*
X187431727Y-100809338D01*
X187466267Y-100813299D01*
X187508492Y-100816615D01*
X187559589Y-100819341D01*
X187620744Y-100821536D01*
X187693144Y-100823255D01*
X187777975Y-100824556D01*
X187876422Y-100825495D01*
X187989674Y-100826130D01*
X188118916Y-100826516D01*
X188265334Y-100826712D01*
X188430116Y-100826773D01*
X188614447Y-100826757D01*
X188819513Y-100826720D01*
X188942133Y-100826711D01*
X189159082Y-100826735D01*
X189354642Y-100826769D01*
X189529999Y-100826757D01*
X189686341Y-100826642D01*
X189824857Y-100826370D01*
X189946734Y-100825882D01*
X190053160Y-100825124D01*
X190145322Y-100824038D01*
X190224409Y-100822569D01*
X190291608Y-100820660D01*
X190348107Y-100818256D01*
X190395093Y-100815299D01*
X190433755Y-100811734D01*
X190465280Y-100807505D01*
X190490855Y-100802554D01*
X190511670Y-100796827D01*
X190528911Y-100790267D01*
X190543765Y-100782817D01*
X190557422Y-100774421D01*
X190571069Y-100765024D01*
X190585893Y-100754568D01*
X190594783Y-100748477D01*
X190652400Y-100709704D01*
X190652400Y-101241268D01*
X190652365Y-101364517D01*
X190652215Y-101467013D01*
X190651878Y-101550580D01*
X190651286Y-101617044D01*
X190650367Y-101668229D01*
X190649051Y-101705959D01*
X190647269Y-101732060D01*
X190644951Y-101748356D01*
X190642026Y-101756672D01*
X190638424Y-101758832D01*
X190634075Y-101756661D01*
X190632645Y-101755465D01*
X190595573Y-101730315D01*
X190542772Y-101704417D01*
X190480770Y-101680808D01*
X190454357Y-101672539D01*
X190436416Y-101667922D01*
X190415355Y-101664021D01*
X190389089Y-101660752D01*
X190355532Y-101658034D01*
X190312599Y-101655785D01*
X190258204Y-101653923D01*
X190190262Y-101652364D01*
X190106688Y-101651028D01*
X190005395Y-101649831D01*
X189884300Y-101648692D01*
X189839600Y-101648315D01*
X189714449Y-101647298D01*
X189610082Y-101646540D01*
X189524707Y-101646097D01*
X189456533Y-101646030D01*
X189403765Y-101646395D01*
X189364614Y-101647252D01*
X189337285Y-101648659D01*
X189319986Y-101650675D01*
X189310926Y-101653357D01*
X189308312Y-101656764D01*
X189310351Y-101660956D01*
X189314667Y-101665429D01*
X189327602Y-101675784D01*
X189356676Y-101697842D01*
X189399759Y-101730043D01*
X189454718Y-101770826D01*
X189519423Y-101818630D01*
X189591742Y-101871895D01*
X189669544Y-101929060D01*
X189750698Y-101988563D01*
X189833072Y-102048845D01*
X189914536Y-102108345D01*
X189992957Y-102165502D01*
X190066204Y-102218755D01*
X190132147Y-102266543D01*
X190188654Y-102307307D01*
X190233593Y-102339484D01*
X190264834Y-102361515D01*
X190271466Y-102366083D01*
X190308369Y-102389004D01*
X190356359Y-102415812D01*
X190405897Y-102441211D01*
X190412577Y-102444432D01*
X190460772Y-102466110D01*
X190498334Y-102478696D01*
X190534160Y-102484426D01*
X190576200Y-102485544D01*
X190652400Y-102484910D01*
X190652400Y-103639349D01*
X190558669Y-103548185D01*
X190508775Y-103501388D01*
X190452295Y-103451101D01*
X190398026Y-103405056D01*
X190372673Y-103384631D01*
X190333128Y-103354193D01*
X190279916Y-103314138D01*
X190214667Y-103265639D01*
X190139011Y-103209865D01*
X190054577Y-103147989D01*
X189962994Y-103081181D01*
X189865892Y-103010613D01*
X189764901Y-102937455D01*
X189661650Y-102862879D01*
X189557768Y-102788056D01*
X189454885Y-102714157D01*
X189354631Y-102642354D01*
X189258636Y-102573816D01*
X189168527Y-102509716D01*
X189085936Y-102451225D01*
X189012492Y-102399514D01*
X188949824Y-102355753D01*
X188899561Y-102321115D01*
X188863334Y-102296770D01*
X188842771Y-102283889D01*
X188838668Y-102282131D01*
X188827342Y-102290090D01*
X188800162Y-102310885D01*
X188758829Y-102343153D01*
X188705044Y-102385530D01*
X188640506Y-102436653D01*
X188566918Y-102495159D01*
X188485978Y-102559686D01*
X188399388Y-102628869D01*
X188308848Y-102701347D01*
X188216060Y-102775754D01*
X188141702Y-102835483D01*
X188141702Y-103846489D01*
X188154659Y-103852398D01*
X188176908Y-103866728D01*
X188178391Y-103867775D01*
X188208544Y-103886562D01*
X188245375Y-103906209D01*
X188253511Y-103910108D01*
X188261940Y-103913644D01*
X188272059Y-103916770D01*
X188285260Y-103919514D01*
X188302938Y-103921908D01*
X188326484Y-103923981D01*
X188357293Y-103925765D01*
X188396757Y-103927288D01*
X188446269Y-103928581D01*
X188507223Y-103929674D01*
X188581011Y-103930597D01*
X188669028Y-103931381D01*
X188772665Y-103932055D01*
X188893316Y-103932650D01*
X189032374Y-103933195D01*
X189191232Y-103933721D01*
X189370089Y-103934255D01*
X189555207Y-103934794D01*
X189719145Y-103935228D01*
X189863303Y-103935491D01*
X189989079Y-103935516D01*
X190097871Y-103935235D01*
X190191077Y-103934581D01*
X190270097Y-103933486D01*
X190336328Y-103931882D01*
X190391170Y-103929703D01*
X190436021Y-103926881D01*
X190472278Y-103923349D01*
X190501341Y-103919039D01*
X190524609Y-103913883D01*
X190543479Y-103907815D01*
X190559351Y-103900767D01*
X190573622Y-103892671D01*
X190587691Y-103883460D01*
X190600158Y-103874960D01*
X190626452Y-103857824D01*
X190644037Y-103847678D01*
X190647257Y-103846489D01*
X190648334Y-103857396D01*
X190649335Y-103888589D01*
X190650235Y-103937777D01*
X190651010Y-104002667D01*
X190651637Y-104080970D01*
X190652091Y-104170393D01*
X190652349Y-104268644D01*
X190652400Y-104337555D01*
X190652180Y-104442548D01*
X190651548Y-104539390D01*
X190650549Y-104625893D01*
X190649227Y-104699868D01*
X190647626Y-104759126D01*
X190645791Y-104801480D01*
X190643765Y-104824740D01*
X190642493Y-104828622D01*
X190627591Y-104820924D01*
X190619560Y-104812926D01*
X190602434Y-104799754D01*
X190572183Y-104782515D01*
X190547622Y-104770593D01*
X190488711Y-104743955D01*
X189311845Y-104740880D01*
X188134978Y-104737805D01*
X188134978Y-104292147D01*
X188135142Y-104194330D01*
X188135611Y-104103936D01*
X188136347Y-104023370D01*
X188137316Y-103955038D01*
X188138480Y-103901344D01*
X188139803Y-103864695D01*
X188141249Y-103847496D01*
X188141702Y-103846489D01*
X188141702Y-102835483D01*
X188122722Y-102850730D01*
X188030537Y-102924910D01*
X187941204Y-102996931D01*
X187856424Y-103065431D01*
X187777898Y-103129045D01*
X187707326Y-103186412D01*
X187646409Y-103236167D01*
X187596847Y-103276948D01*
X187576178Y-103294112D01*
X187475516Y-103380404D01*
X187392259Y-103457003D01*
X187324438Y-103525817D01*
X187270089Y-103588752D01*
X187262722Y-103598133D01*
X187232117Y-103637644D01*
X187231867Y-102505884D01*
X187279844Y-102511173D01*
X187337188Y-102507870D01*
X187405463Y-102486339D01*
X187485212Y-102446365D01*
X187557495Y-102401057D01*
X187580140Y-102384839D01*
X187617696Y-102356786D01*
X187668021Y-102318570D01*
X187728973Y-102271863D01*
X187798411Y-102218339D01*
X187874194Y-102159669D01*
X187954180Y-102097525D01*
X188036228Y-102033579D01*
X188118196Y-101969505D01*
X188197943Y-101906973D01*
X188273327Y-101847657D01*
X188342207Y-101793229D01*
X188402442Y-101745361D01*
X188451889Y-101705725D01*
X188488408Y-101675994D01*
X188509858Y-101657839D01*
X188513156Y-101654780D01*
X188505149Y-101651921D01*
X188474855Y-101649707D01*
X188422556Y-101648143D01*
X188348531Y-101647233D01*
X188253063Y-101646980D01*
X188136434Y-101647387D01*
X188016445Y-101648296D01*
X187884333Y-101649618D01*
X187772594Y-101651143D01*
X187679025Y-101653119D01*
X187601419Y-101655794D01*
X187537574Y-101659418D01*
X187485283Y-101664239D01*
X187442344Y-101670506D01*
X187406551Y-101678468D01*
X187375700Y-101688373D01*
X187347586Y-101700469D01*
X187320005Y-101715007D01*
X187294966Y-101729689D01*
X187231867Y-101767686D01*
X187231867Y-100707803D01*
X187231867Y-100404966D01*
X187225617Y-100404999D01*
X187123544Y-100405805D01*
X187034633Y-100406830D01*
X186957941Y-100408100D01*
X186892527Y-100409640D01*
X186837449Y-100411476D01*
X186791765Y-100413633D01*
X186754534Y-100416137D01*
X186724813Y-100419013D01*
X186701662Y-100422287D01*
X186684139Y-100425985D01*
X186671301Y-100430131D01*
X186662208Y-100434753D01*
X186655918Y-100439874D01*
X186651488Y-100445522D01*
X186647978Y-100451721D01*
X186644445Y-100458496D01*
X186640876Y-100464492D01*
X186638300Y-100469725D01*
X186635972Y-100477901D01*
X186633878Y-100490114D01*
X186632007Y-100507459D01*
X186630347Y-100531031D01*
X186628884Y-100561923D01*
X186627608Y-100601232D01*
X186626504Y-100650050D01*
X186625561Y-100709473D01*
X186624767Y-100780596D01*
X186624109Y-100864512D01*
X186623575Y-100962317D01*
X186623153Y-101075106D01*
X186622829Y-101203971D01*
X186622592Y-101350009D01*
X186622430Y-101514314D01*
X186622330Y-101697980D01*
X186622280Y-101902103D01*
X186622267Y-102113247D01*
X186622267Y-103733600D01*
X186719054Y-103733600D01*
D13*
X169140000Y-114300000D02*
X168370000Y-114300000D01*
X161060000Y-114300000D02*
X161830000Y-114300000D01*
X168370000Y-115670000D02*
X161830000Y-115670000D01*
X168370000Y-112930000D02*
X168370000Y-115670000D01*
X161830000Y-112930000D02*
X168370000Y-112930000D01*
X161830000Y-115670000D02*
X161830000Y-112930000D01*
X176300000Y-74780000D02*
X176300000Y-72540000D01*
X169060000Y-74780000D02*
X169060000Y-72540000D01*
X169060000Y-72540000D02*
X176300000Y-72540000D01*
X169060000Y-74780000D02*
X176300000Y-74780000D01*
X176300000Y-46840000D02*
X176300000Y-44600000D01*
X169060000Y-46840000D02*
X169060000Y-44600000D01*
X169060000Y-44600000D02*
X176300000Y-44600000D01*
X169060000Y-46840000D02*
X176300000Y-46840000D01*
X153540000Y-64770000D02*
X156340000Y-64770000D01*
X153540000Y-85260000D02*
X153540000Y-62060000D01*
X156340000Y-85260000D02*
X153540000Y-85260000D01*
X156340000Y-62060000D02*
X156340000Y-85260000D01*
X153540000Y-62060000D02*
X156340000Y-62060000D01*
X186560000Y-64770000D02*
X189360000Y-64770000D01*
X186560000Y-85260000D02*
X186560000Y-62060000D01*
X189360000Y-85260000D02*
X186560000Y-85260000D01*
X189360000Y-62060000D02*
X189360000Y-85260000D01*
X186560000Y-62060000D02*
X189360000Y-62060000D01*
D15*
X173228000Y-35861171D02*
X173228000Y-36296600D01*
X173257028Y-36383685D01*
X173315085Y-36441742D01*
X173402171Y-36470771D01*
X173460228Y-36470771D01*
X172937714Y-36470771D02*
X172937714Y-35861171D01*
X172705485Y-35861171D01*
X172647428Y-35890200D01*
X172618400Y-35919228D01*
X172589371Y-35977285D01*
X172589371Y-36064371D01*
X172618400Y-36122428D01*
X172647428Y-36151457D01*
X172705485Y-36180485D01*
X172937714Y-36180485D01*
X172008800Y-36470771D02*
X172357142Y-36470771D01*
X172182971Y-36470771D02*
X172182971Y-35861171D01*
X172241028Y-35948257D01*
X172299085Y-36006314D01*
X172357142Y-36035342D01*
X175434171Y-40251742D02*
X175347085Y-40280771D01*
X175201942Y-40280771D01*
X175143885Y-40251742D01*
X175114857Y-40222714D01*
X175085828Y-40164657D01*
X175085828Y-40106600D01*
X175114857Y-40048542D01*
X175143885Y-40019514D01*
X175201942Y-39990485D01*
X175318057Y-39961457D01*
X175376114Y-39932428D01*
X175405142Y-39903400D01*
X175434171Y-39845342D01*
X175434171Y-39787285D01*
X175405142Y-39729228D01*
X175376114Y-39700200D01*
X175318057Y-39671171D01*
X175172914Y-39671171D01*
X175085828Y-39700200D01*
X174737485Y-40280771D02*
X174795542Y-40251742D01*
X174824571Y-40222714D01*
X174853600Y-40164657D01*
X174853600Y-39990485D01*
X174824571Y-39932428D01*
X174795542Y-39903400D01*
X174737485Y-39874371D01*
X174650400Y-39874371D01*
X174592342Y-39903400D01*
X174563314Y-39932428D01*
X174534285Y-39990485D01*
X174534285Y-40164657D01*
X174563314Y-40222714D01*
X174592342Y-40251742D01*
X174650400Y-40280771D01*
X174737485Y-40280771D01*
X174011771Y-39874371D02*
X174011771Y-40280771D01*
X174273028Y-39874371D02*
X174273028Y-40193685D01*
X174244000Y-40251742D01*
X174185942Y-40280771D01*
X174098857Y-40280771D01*
X174040800Y-40251742D01*
X174011771Y-40222714D01*
X173721485Y-40280771D02*
X173721485Y-39874371D01*
X173721485Y-39990485D02*
X173692457Y-39932428D01*
X173663428Y-39903400D01*
X173605371Y-39874371D01*
X173547314Y-39874371D01*
X173082857Y-40251742D02*
X173140914Y-40280771D01*
X173257028Y-40280771D01*
X173315085Y-40251742D01*
X173344114Y-40222714D01*
X173373142Y-40164657D01*
X173373142Y-39990485D01*
X173344114Y-39932428D01*
X173315085Y-39903400D01*
X173257028Y-39874371D01*
X173140914Y-39874371D01*
X173082857Y-39903400D01*
X172589371Y-40251742D02*
X172647428Y-40280771D01*
X172763542Y-40280771D01*
X172821600Y-40251742D01*
X172850628Y-40193685D01*
X172850628Y-39961457D01*
X172821600Y-39903400D01*
X172763542Y-39874371D01*
X172647428Y-39874371D01*
X172589371Y-39903400D01*
X172560342Y-39961457D01*
X172560342Y-40019514D01*
X172850628Y-40077571D01*
X171863657Y-39642142D02*
X172386171Y-40425914D01*
X171689485Y-40251742D02*
X171602400Y-40280771D01*
X171457257Y-40280771D01*
X171399200Y-40251742D01*
X171370171Y-40222714D01*
X171341142Y-40164657D01*
X171341142Y-40106600D01*
X171370171Y-40048542D01*
X171399200Y-40019514D01*
X171457257Y-39990485D01*
X171573371Y-39961457D01*
X171631428Y-39932428D01*
X171660457Y-39903400D01*
X171689485Y-39845342D01*
X171689485Y-39787285D01*
X171660457Y-39729228D01*
X171631428Y-39700200D01*
X171573371Y-39671171D01*
X171428228Y-39671171D01*
X171341142Y-39700200D01*
X171079885Y-40280771D02*
X171079885Y-39874371D01*
X171079885Y-39671171D02*
X171108914Y-39700200D01*
X171079885Y-39729228D01*
X171050857Y-39700200D01*
X171079885Y-39671171D01*
X171079885Y-39729228D01*
X170789600Y-39874371D02*
X170789600Y-40280771D01*
X170789600Y-39932428D02*
X170760571Y-39903400D01*
X170702514Y-39874371D01*
X170615428Y-39874371D01*
X170557371Y-39903400D01*
X170528342Y-39961457D01*
X170528342Y-40280771D01*
X170238057Y-40280771D02*
X170238057Y-39671171D01*
X170180000Y-40048542D02*
X170005828Y-40280771D01*
X170005828Y-39874371D02*
X170238057Y-40106600D01*
D10*
X162282380Y-123431666D02*
X162996666Y-123431666D01*
X163139523Y-123384047D01*
X163234761Y-123288809D01*
X163282380Y-123145952D01*
X163282380Y-123050714D01*
X163282380Y-124431666D02*
X163282380Y-123860238D01*
X163282380Y-124145952D02*
X162282380Y-124145952D01*
X162425238Y-124050714D01*
X162520476Y-123955476D01*
X162568095Y-123860238D01*
X184662380Y-113466666D02*
X185376666Y-113466666D01*
X185519523Y-113419047D01*
X185614761Y-113323809D01*
X185662380Y-113180952D01*
X185662380Y-113085714D01*
X185662380Y-113942857D02*
X184662380Y-113942857D01*
X184662380Y-114323809D01*
X184710000Y-114419047D01*
X184757619Y-114466666D01*
X184852857Y-114514285D01*
X184995714Y-114514285D01*
X185090952Y-114466666D01*
X185138571Y-114419047D01*
X185186190Y-114323809D01*
X185186190Y-113942857D01*
X184757619Y-114895238D02*
X184710000Y-114942857D01*
X184662380Y-115038095D01*
X184662380Y-115276190D01*
X184710000Y-115371428D01*
X184757619Y-115419047D01*
X184852857Y-115466666D01*
X184948095Y-115466666D01*
X185090952Y-115419047D01*
X185662380Y-114847619D01*
X185662380Y-115466666D01*
X167806666Y-99417142D02*
X167854285Y-99464761D01*
X167997142Y-99512380D01*
X168092380Y-99512380D01*
X168235238Y-99464761D01*
X168330476Y-99369523D01*
X168378095Y-99274285D01*
X168425714Y-99083809D01*
X168425714Y-98940952D01*
X168378095Y-98750476D01*
X168330476Y-98655238D01*
X168235238Y-98560000D01*
X168092380Y-98512380D01*
X167997142Y-98512380D01*
X167854285Y-98560000D01*
X167806666Y-98607619D01*
X167473333Y-98512380D02*
X166854285Y-98512380D01*
X167187619Y-98893333D01*
X167044761Y-98893333D01*
X166949523Y-98940952D01*
X166901904Y-98988571D01*
X166854285Y-99083809D01*
X166854285Y-99321904D01*
X166901904Y-99417142D01*
X166949523Y-99464761D01*
X167044761Y-99512380D01*
X167330476Y-99512380D01*
X167425714Y-99464761D01*
X167473333Y-99417142D01*
X165266666Y-117122380D02*
X165600000Y-116646190D01*
X165838095Y-117122380D02*
X165838095Y-116122380D01*
X165457142Y-116122380D01*
X165361904Y-116170000D01*
X165314285Y-116217619D01*
X165266666Y-116312857D01*
X165266666Y-116455714D01*
X165314285Y-116550952D01*
X165361904Y-116598571D01*
X165457142Y-116646190D01*
X165838095Y-116646190D01*
X164314285Y-117122380D02*
X164885714Y-117122380D01*
X164600000Y-117122380D02*
X164600000Y-116122380D01*
X164695238Y-116265238D01*
X164790476Y-116360476D01*
X164885714Y-116408095D01*
X167806666Y-74017142D02*
X167854285Y-74064761D01*
X167997142Y-74112380D01*
X168092380Y-74112380D01*
X168235238Y-74064761D01*
X168330476Y-73969523D01*
X168378095Y-73874285D01*
X168425714Y-73683809D01*
X168425714Y-73540952D01*
X168378095Y-73350476D01*
X168330476Y-73255238D01*
X168235238Y-73160000D01*
X168092380Y-73112380D01*
X167997142Y-73112380D01*
X167854285Y-73160000D01*
X167806666Y-73207619D01*
X167425714Y-73207619D02*
X167378095Y-73160000D01*
X167282857Y-73112380D01*
X167044761Y-73112380D01*
X166949523Y-73160000D01*
X166901904Y-73207619D01*
X166854285Y-73302857D01*
X166854285Y-73398095D01*
X166901904Y-73540952D01*
X167473333Y-74112380D01*
X166854285Y-74112380D01*
X167806666Y-46077142D02*
X167854285Y-46124761D01*
X167997142Y-46172380D01*
X168092380Y-46172380D01*
X168235238Y-46124761D01*
X168330476Y-46029523D01*
X168378095Y-45934285D01*
X168425714Y-45743809D01*
X168425714Y-45600952D01*
X168378095Y-45410476D01*
X168330476Y-45315238D01*
X168235238Y-45220000D01*
X168092380Y-45172380D01*
X167997142Y-45172380D01*
X167854285Y-45220000D01*
X167806666Y-45267619D01*
X166854285Y-46172380D02*
X167425714Y-46172380D01*
X167140000Y-46172380D02*
X167140000Y-45172380D01*
X167235238Y-45315238D01*
X167330476Y-45410476D01*
X167425714Y-45458095D01*
X152992380Y-74239523D02*
X152516190Y-73906190D01*
X152992380Y-73668095D02*
X151992380Y-73668095D01*
X151992380Y-74049047D01*
X152040000Y-74144285D01*
X152087619Y-74191904D01*
X152182857Y-74239523D01*
X152325714Y-74239523D01*
X152420952Y-74191904D01*
X152468571Y-74144285D01*
X152516190Y-74049047D01*
X152516190Y-73668095D01*
X152992380Y-74668095D02*
X151992380Y-74668095D01*
X152992380Y-75239523D01*
X151992380Y-75239523D01*
X152087619Y-75668095D02*
X152040000Y-75715714D01*
X151992380Y-75810952D01*
X151992380Y-76049047D01*
X152040000Y-76144285D01*
X152087619Y-76191904D01*
X152182857Y-76239523D01*
X152278095Y-76239523D01*
X152420952Y-76191904D01*
X152992380Y-75620476D01*
X152992380Y-76239523D01*
X186012380Y-74239523D02*
X185536190Y-73906190D01*
X186012380Y-73668095D02*
X185012380Y-73668095D01*
X185012380Y-74049047D01*
X185060000Y-74144285D01*
X185107619Y-74191904D01*
X185202857Y-74239523D01*
X185345714Y-74239523D01*
X185440952Y-74191904D01*
X185488571Y-74144285D01*
X185536190Y-74049047D01*
X185536190Y-73668095D01*
X186012380Y-74668095D02*
X185012380Y-74668095D01*
X186012380Y-75239523D01*
X185012380Y-75239523D01*
X186012380Y-76239523D02*
X186012380Y-75668095D01*
X186012380Y-75953809D02*
X185012380Y-75953809D01*
X185155238Y-75858571D01*
X185250476Y-75763333D01*
X185298095Y-75668095D01*
M02*
