%TF.GenerationSoftware,KiCad,Pcbnew,5.1.5-5.1.5*%
%TF.CreationDate,2019-11-28T22:59:43+11:00*%
%TF.ProjectId,srdisplay,73726469-7370-46c6-9179-2e6b69636164,rev?*%
%TF.SameCoordinates,Original*%
%TF.FileFunction,Legend,Top*%
%TF.FilePolarity,Positive*%
%FSLAX46Y46*%
G04 Gerber Fmt 4.6, Leading zero omitted, Abs format (unit mm)*
G04 Created by KiCad (PCBNEW 5.1.5-5.1.5) date 2019-11-28 22:59:43*
%MOMM*%
%LPD*%
G04 APERTURE LIST*
%ADD10C,0.150000*%
%ADD11C,0.120000*%
G04 APERTURE END LIST*
D10*
X167783333Y-135675714D02*
X167783333Y-136342380D01*
X167545238Y-135294761D02*
X167307142Y-136009047D01*
X167926190Y-136009047D01*
X168450000Y-135770952D02*
X168354761Y-135723333D01*
X168307142Y-135675714D01*
X168259523Y-135580476D01*
X168259523Y-135532857D01*
X168307142Y-135437619D01*
X168354761Y-135390000D01*
X168450000Y-135342380D01*
X168640476Y-135342380D01*
X168735714Y-135390000D01*
X168783333Y-135437619D01*
X168830952Y-135532857D01*
X168830952Y-135580476D01*
X168783333Y-135675714D01*
X168735714Y-135723333D01*
X168640476Y-135770952D01*
X168450000Y-135770952D01*
X168354761Y-135818571D01*
X168307142Y-135866190D01*
X168259523Y-135961428D01*
X168259523Y-136151904D01*
X168307142Y-136247142D01*
X168354761Y-136294761D01*
X168450000Y-136342380D01*
X168640476Y-136342380D01*
X168735714Y-136294761D01*
X168783333Y-136247142D01*
X168830952Y-136151904D01*
X168830952Y-135961428D01*
X168783333Y-135866190D01*
X168735714Y-135818571D01*
X168640476Y-135770952D01*
X169259523Y-136247142D02*
X169307142Y-136294761D01*
X169259523Y-136342380D01*
X169211904Y-136294761D01*
X169259523Y-136247142D01*
X169259523Y-136342380D01*
X169688095Y-135437619D02*
X169735714Y-135390000D01*
X169830952Y-135342380D01*
X170069047Y-135342380D01*
X170164285Y-135390000D01*
X170211904Y-135437619D01*
X170259523Y-135532857D01*
X170259523Y-135628095D01*
X170211904Y-135770952D01*
X169640476Y-136342380D01*
X170259523Y-136342380D01*
X171116666Y-135342380D02*
X170926190Y-135342380D01*
X170830952Y-135390000D01*
X170783333Y-135437619D01*
X170688095Y-135580476D01*
X170640476Y-135770952D01*
X170640476Y-136151904D01*
X170688095Y-136247142D01*
X170735714Y-136294761D01*
X170830952Y-136342380D01*
X171021428Y-136342380D01*
X171116666Y-136294761D01*
X171164285Y-136247142D01*
X171211904Y-136151904D01*
X171211904Y-135913809D01*
X171164285Y-135818571D01*
X171116666Y-135770952D01*
X171021428Y-135723333D01*
X170830952Y-135723333D01*
X170735714Y-135770952D01*
X170688095Y-135818571D01*
X170640476Y-135913809D01*
X171830952Y-135342380D02*
X171926190Y-135342380D01*
X172021428Y-135390000D01*
X172069047Y-135437619D01*
X172116666Y-135532857D01*
X172164285Y-135723333D01*
X172164285Y-135961428D01*
X172116666Y-136151904D01*
X172069047Y-136247142D01*
X172021428Y-136294761D01*
X171926190Y-136342380D01*
X171830952Y-136342380D01*
X171735714Y-136294761D01*
X171688095Y-136247142D01*
X171640476Y-136151904D01*
X171592857Y-135961428D01*
X171592857Y-135723333D01*
X171640476Y-135532857D01*
X171688095Y-135437619D01*
X171735714Y-135390000D01*
X171830952Y-135342380D01*
X173354761Y-136342380D02*
X173354761Y-135675714D01*
X173354761Y-135770952D02*
X173402380Y-135723333D01*
X173497619Y-135675714D01*
X173640476Y-135675714D01*
X173735714Y-135723333D01*
X173783333Y-135818571D01*
X173783333Y-136342380D01*
X173783333Y-135818571D02*
X173830952Y-135723333D01*
X173926190Y-135675714D01*
X174069047Y-135675714D01*
X174164285Y-135723333D01*
X174211904Y-135818571D01*
X174211904Y-136342380D01*
X174688095Y-136342380D02*
X174688095Y-135675714D01*
X174688095Y-135770952D02*
X174735714Y-135723333D01*
X174830952Y-135675714D01*
X174973809Y-135675714D01*
X175069047Y-135723333D01*
X175116666Y-135818571D01*
X175116666Y-136342380D01*
X175116666Y-135818571D02*
X175164285Y-135723333D01*
X175259523Y-135675714D01*
X175402380Y-135675714D01*
X175497619Y-135723333D01*
X175545238Y-135818571D01*
X175545238Y-136342380D01*
D11*
X147320000Y-134620000D02*
X195580000Y-134620000D01*
X147320000Y-124460000D02*
X147320000Y-135206421D01*
X195580000Y-124460000D02*
X195580000Y-135206421D01*
X195580000Y-134620000D02*
X194453496Y-135206421D01*
X195580000Y-134620000D02*
X194453496Y-134033579D01*
X147320000Y-134620000D02*
X148446504Y-135206421D01*
X147320000Y-134620000D02*
X148446504Y-134033579D01*
D10*
X201477619Y-75962380D02*
X201477619Y-76152857D01*
X201525238Y-76248095D01*
X201572857Y-76295714D01*
X201715714Y-76390952D01*
X201906190Y-76438571D01*
X202287142Y-76438571D01*
X202382380Y-76390952D01*
X202430000Y-76343333D01*
X202477619Y-76248095D01*
X202477619Y-76057619D01*
X202430000Y-75962380D01*
X202382380Y-75914761D01*
X202287142Y-75867142D01*
X202049047Y-75867142D01*
X201953809Y-75914761D01*
X201906190Y-75962380D01*
X201858571Y-76057619D01*
X201858571Y-76248095D01*
X201906190Y-76343333D01*
X201953809Y-76390952D01*
X202049047Y-76438571D01*
X201477619Y-76914761D02*
X201477619Y-77105238D01*
X201525238Y-77200476D01*
X201572857Y-77248095D01*
X201715714Y-77343333D01*
X201906190Y-77390952D01*
X202287142Y-77390952D01*
X202382380Y-77343333D01*
X202430000Y-77295714D01*
X202477619Y-77200476D01*
X202477619Y-77010000D01*
X202430000Y-76914761D01*
X202382380Y-76867142D01*
X202287142Y-76819523D01*
X202049047Y-76819523D01*
X201953809Y-76867142D01*
X201906190Y-76914761D01*
X201858571Y-77010000D01*
X201858571Y-77200476D01*
X201906190Y-77295714D01*
X201953809Y-77343333D01*
X202049047Y-77390952D01*
X201572857Y-77819523D02*
X201525238Y-77867142D01*
X201477619Y-77819523D01*
X201525238Y-77771904D01*
X201572857Y-77819523D01*
X201477619Y-77819523D01*
X202477619Y-78486190D02*
X202477619Y-78581428D01*
X202430000Y-78676666D01*
X202382380Y-78724285D01*
X202287142Y-78771904D01*
X202096666Y-78819523D01*
X201858571Y-78819523D01*
X201668095Y-78771904D01*
X201572857Y-78724285D01*
X201525238Y-78676666D01*
X201477619Y-78581428D01*
X201477619Y-78486190D01*
X201525238Y-78390952D01*
X201572857Y-78343333D01*
X201668095Y-78295714D01*
X201858571Y-78248095D01*
X202096666Y-78248095D01*
X202287142Y-78295714D01*
X202382380Y-78343333D01*
X202430000Y-78390952D01*
X202477619Y-78486190D01*
X202477619Y-79676666D02*
X202477619Y-79486190D01*
X202430000Y-79390952D01*
X202382380Y-79343333D01*
X202239523Y-79248095D01*
X202049047Y-79200476D01*
X201668095Y-79200476D01*
X201572857Y-79248095D01*
X201525238Y-79295714D01*
X201477619Y-79390952D01*
X201477619Y-79581428D01*
X201525238Y-79676666D01*
X201572857Y-79724285D01*
X201668095Y-79771904D01*
X201906190Y-79771904D01*
X202001428Y-79724285D01*
X202049047Y-79676666D01*
X202096666Y-79581428D01*
X202096666Y-79390952D01*
X202049047Y-79295714D01*
X202001428Y-79248095D01*
X201906190Y-79200476D01*
X202477619Y-80390952D02*
X202477619Y-80486190D01*
X202430000Y-80581428D01*
X202382380Y-80629047D01*
X202287142Y-80676666D01*
X202096666Y-80724285D01*
X201858571Y-80724285D01*
X201668095Y-80676666D01*
X201572857Y-80629047D01*
X201525238Y-80581428D01*
X201477619Y-80486190D01*
X201477619Y-80390952D01*
X201525238Y-80295714D01*
X201572857Y-80248095D01*
X201668095Y-80200476D01*
X201858571Y-80152857D01*
X202096666Y-80152857D01*
X202287142Y-80200476D01*
X202382380Y-80248095D01*
X202430000Y-80295714D01*
X202477619Y-80390952D01*
X201477619Y-81914761D02*
X202144285Y-81914761D01*
X202049047Y-81914761D02*
X202096666Y-81962380D01*
X202144285Y-82057619D01*
X202144285Y-82200476D01*
X202096666Y-82295714D01*
X202001428Y-82343333D01*
X201477619Y-82343333D01*
X202001428Y-82343333D02*
X202096666Y-82390952D01*
X202144285Y-82486190D01*
X202144285Y-82629047D01*
X202096666Y-82724285D01*
X202001428Y-82771904D01*
X201477619Y-82771904D01*
X201477619Y-83248095D02*
X202144285Y-83248095D01*
X202049047Y-83248095D02*
X202096666Y-83295714D01*
X202144285Y-83390952D01*
X202144285Y-83533809D01*
X202096666Y-83629047D01*
X202001428Y-83676666D01*
X201477619Y-83676666D01*
X202001428Y-83676666D02*
X202096666Y-83724285D01*
X202144285Y-83819523D01*
X202144285Y-83962380D01*
X202096666Y-84057619D01*
X202001428Y-84105238D01*
X201477619Y-84105238D01*
D11*
X200660000Y-30480000D02*
X200660000Y-129540000D01*
X187960000Y-30480000D02*
X201246421Y-30480000D01*
X187960000Y-129540000D02*
X201246421Y-129540000D01*
X200660000Y-129540000D02*
X200073579Y-128413496D01*
X200660000Y-129540000D02*
X201246421Y-128413496D01*
X200660000Y-30480000D02*
X200073579Y-31606504D01*
X200660000Y-30480000D02*
X201246421Y-31606504D01*
X173010000Y-108140000D02*
X173010000Y-107984000D01*
X173010000Y-110456000D02*
X173010000Y-110300000D01*
X170408870Y-108140163D02*
G75*
G02X172490961Y-108140000I1041130J-1079837D01*
G01*
X170408870Y-110299837D02*
G75*
G03X172490961Y-110300000I1041130J1079837D01*
G01*
X169777665Y-108141392D02*
G75*
G02X173010000Y-107984484I1672335J-1078608D01*
G01*
X169777665Y-110298608D02*
G75*
G03X173010000Y-110455516I1672335J1078608D01*
G01*
X159730000Y-39180000D02*
X159730000Y-39336000D01*
X159730000Y-36864000D02*
X159730000Y-37020000D01*
X162331130Y-39179837D02*
G75*
G02X160249039Y-39180000I-1041130J1079837D01*
G01*
X162331130Y-37020163D02*
G75*
G03X160249039Y-37020000I-1041130J-1079837D01*
G01*
X162962335Y-39178608D02*
G75*
G02X159730000Y-39335516I-1672335J1078608D01*
G01*
X162962335Y-37021392D02*
G75*
G03X159730000Y-36864484I-1672335J-1078608D01*
G01*
X159730000Y-49340000D02*
X159730000Y-49496000D01*
X159730000Y-47024000D02*
X159730000Y-47180000D01*
X162331130Y-49339837D02*
G75*
G02X160249039Y-49340000I-1041130J1079837D01*
G01*
X162331130Y-47180163D02*
G75*
G03X160249039Y-47180000I-1041130J-1079837D01*
G01*
X162962335Y-49338608D02*
G75*
G02X159730000Y-49495516I-1672335J1078608D01*
G01*
X162962335Y-47181392D02*
G75*
G03X159730000Y-47024484I-1672335J-1078608D01*
G01*
X159730000Y-59500000D02*
X159730000Y-59656000D01*
X159730000Y-57184000D02*
X159730000Y-57340000D01*
X162331130Y-59499837D02*
G75*
G02X160249039Y-59500000I-1041130J1079837D01*
G01*
X162331130Y-57340163D02*
G75*
G03X160249039Y-57340000I-1041130J-1079837D01*
G01*
X162962335Y-59498608D02*
G75*
G02X159730000Y-59655516I-1672335J1078608D01*
G01*
X162962335Y-57341392D02*
G75*
G03X159730000Y-57184484I-1672335J-1078608D01*
G01*
X159730000Y-69660000D02*
X159730000Y-69816000D01*
X159730000Y-67344000D02*
X159730000Y-67500000D01*
X162331130Y-69659837D02*
G75*
G02X160249039Y-69660000I-1041130J1079837D01*
G01*
X162331130Y-67500163D02*
G75*
G03X160249039Y-67500000I-1041130J-1079837D01*
G01*
X162962335Y-69658608D02*
G75*
G02X159730000Y-69815516I-1672335J1078608D01*
G01*
X162962335Y-67501392D02*
G75*
G03X159730000Y-67344484I-1672335J-1078608D01*
G01*
X159730000Y-79820000D02*
X159730000Y-79976000D01*
X159730000Y-77504000D02*
X159730000Y-77660000D01*
X162331130Y-79819837D02*
G75*
G02X160249039Y-79820000I-1041130J1079837D01*
G01*
X162331130Y-77660163D02*
G75*
G03X160249039Y-77660000I-1041130J-1079837D01*
G01*
X162962335Y-79818608D02*
G75*
G02X159730000Y-79975516I-1672335J1078608D01*
G01*
X162962335Y-77661392D02*
G75*
G03X159730000Y-77504484I-1672335J-1078608D01*
G01*
X159730000Y-89980000D02*
X159730000Y-90136000D01*
X159730000Y-87664000D02*
X159730000Y-87820000D01*
X162331130Y-89979837D02*
G75*
G02X160249039Y-89980000I-1041130J1079837D01*
G01*
X162331130Y-87820163D02*
G75*
G03X160249039Y-87820000I-1041130J-1079837D01*
G01*
X162962335Y-89978608D02*
G75*
G02X159730000Y-90135516I-1672335J1078608D01*
G01*
X162962335Y-87821392D02*
G75*
G03X159730000Y-87664484I-1672335J-1078608D01*
G01*
X159730000Y-100140000D02*
X159730000Y-100296000D01*
X159730000Y-97824000D02*
X159730000Y-97980000D01*
X162331130Y-100139837D02*
G75*
G02X160249039Y-100140000I-1041130J1079837D01*
G01*
X162331130Y-97980163D02*
G75*
G03X160249039Y-97980000I-1041130J-1079837D01*
G01*
X162962335Y-100138608D02*
G75*
G02X159730000Y-100295516I-1672335J1078608D01*
G01*
X162962335Y-97981392D02*
G75*
G03X159730000Y-97824484I-1672335J-1078608D01*
G01*
X159730000Y-110300000D02*
X159730000Y-110456000D01*
X159730000Y-107984000D02*
X159730000Y-108140000D01*
X162331130Y-110299837D02*
G75*
G02X160249039Y-110300000I-1041130J1079837D01*
G01*
X162331130Y-108140163D02*
G75*
G03X160249039Y-108140000I-1041130J-1079837D01*
G01*
X162962335Y-110298608D02*
G75*
G02X159730000Y-110455516I-1672335J1078608D01*
G01*
X162962335Y-108141392D02*
G75*
G03X159730000Y-107984484I-1672335J-1078608D01*
G01*
X183170000Y-37020000D02*
X183170000Y-36864000D01*
X183170000Y-39336000D02*
X183170000Y-39180000D01*
X180568870Y-37020163D02*
G75*
G02X182650961Y-37020000I1041130J-1079837D01*
G01*
X180568870Y-39179837D02*
G75*
G03X182650961Y-39180000I1041130J1079837D01*
G01*
X179937665Y-37021392D02*
G75*
G02X183170000Y-36864484I1672335J-1078608D01*
G01*
X179937665Y-39178608D02*
G75*
G03X183170000Y-39335516I1672335J1078608D01*
G01*
X183170000Y-47180000D02*
X183170000Y-47024000D01*
X183170000Y-49496000D02*
X183170000Y-49340000D01*
X180568870Y-47180163D02*
G75*
G02X182650961Y-47180000I1041130J-1079837D01*
G01*
X180568870Y-49339837D02*
G75*
G03X182650961Y-49340000I1041130J1079837D01*
G01*
X179937665Y-47181392D02*
G75*
G02X183170000Y-47024484I1672335J-1078608D01*
G01*
X179937665Y-49338608D02*
G75*
G03X183170000Y-49495516I1672335J1078608D01*
G01*
X183170000Y-57340000D02*
X183170000Y-57184000D01*
X183170000Y-59656000D02*
X183170000Y-59500000D01*
X180568870Y-57340163D02*
G75*
G02X182650961Y-57340000I1041130J-1079837D01*
G01*
X180568870Y-59499837D02*
G75*
G03X182650961Y-59500000I1041130J1079837D01*
G01*
X179937665Y-57341392D02*
G75*
G02X183170000Y-57184484I1672335J-1078608D01*
G01*
X179937665Y-59498608D02*
G75*
G03X183170000Y-59655516I1672335J1078608D01*
G01*
X183170000Y-67500000D02*
X183170000Y-67344000D01*
X183170000Y-69816000D02*
X183170000Y-69660000D01*
X180568870Y-67500163D02*
G75*
G02X182650961Y-67500000I1041130J-1079837D01*
G01*
X180568870Y-69659837D02*
G75*
G03X182650961Y-69660000I1041130J1079837D01*
G01*
X179937665Y-67501392D02*
G75*
G02X183170000Y-67344484I1672335J-1078608D01*
G01*
X179937665Y-69658608D02*
G75*
G03X183170000Y-69815516I1672335J1078608D01*
G01*
X183170000Y-77660000D02*
X183170000Y-77504000D01*
X183170000Y-79976000D02*
X183170000Y-79820000D01*
X180568870Y-77660163D02*
G75*
G02X182650961Y-77660000I1041130J-1079837D01*
G01*
X180568870Y-79819837D02*
G75*
G03X182650961Y-79820000I1041130J1079837D01*
G01*
X179937665Y-77661392D02*
G75*
G02X183170000Y-77504484I1672335J-1078608D01*
G01*
X179937665Y-79818608D02*
G75*
G03X183170000Y-79975516I1672335J1078608D01*
G01*
X183170000Y-87820000D02*
X183170000Y-87664000D01*
X183170000Y-90136000D02*
X183170000Y-89980000D01*
X180568870Y-87820163D02*
G75*
G02X182650961Y-87820000I1041130J-1079837D01*
G01*
X180568870Y-89979837D02*
G75*
G03X182650961Y-89980000I1041130J1079837D01*
G01*
X179937665Y-87821392D02*
G75*
G02X183170000Y-87664484I1672335J-1078608D01*
G01*
X179937665Y-89978608D02*
G75*
G03X183170000Y-90135516I1672335J1078608D01*
G01*
X183170000Y-97980000D02*
X183170000Y-97824000D01*
X183170000Y-100296000D02*
X183170000Y-100140000D01*
X180568870Y-97980163D02*
G75*
G02X182650961Y-97980000I1041130J-1079837D01*
G01*
X180568870Y-100139837D02*
G75*
G03X182650961Y-100140000I1041130J1079837D01*
G01*
X179937665Y-97981392D02*
G75*
G02X183170000Y-97824484I1672335J-1078608D01*
G01*
X179937665Y-100138608D02*
G75*
G03X183170000Y-100295516I1672335J1078608D01*
G01*
X183170000Y-108140000D02*
X183170000Y-107984000D01*
X183170000Y-110456000D02*
X183170000Y-110300000D01*
X180568870Y-108140163D02*
G75*
G02X182650961Y-108140000I1041130J-1079837D01*
G01*
X180568870Y-110299837D02*
G75*
G03X182650961Y-110300000I1041130J1079837D01*
G01*
X179937665Y-108141392D02*
G75*
G02X183170000Y-107984484I1672335J-1078608D01*
G01*
X179937665Y-110298608D02*
G75*
G03X183170000Y-110455516I1672335J1078608D01*
G01*
X168800000Y-97850000D02*
X170450000Y-97850000D01*
X168800000Y-77410000D02*
X168800000Y-97850000D01*
X174100000Y-77410000D02*
X168800000Y-77410000D01*
X174100000Y-97850000D02*
X174100000Y-77410000D01*
X172450000Y-97850000D02*
X174100000Y-97850000D01*
X170450000Y-97850000D02*
G75*
G02X172450000Y-97850000I1000000J0D01*
G01*
X168800000Y-69910000D02*
X170450000Y-69910000D01*
X168800000Y-49470000D02*
X168800000Y-69910000D01*
X174100000Y-49470000D02*
X168800000Y-49470000D01*
X174100000Y-69910000D02*
X174100000Y-49470000D01*
X172450000Y-69910000D02*
X174100000Y-69910000D01*
X170450000Y-69910000D02*
G75*
G02X172450000Y-69910000I1000000J0D01*
G01*
D10*
X170235714Y-112632380D02*
X170235714Y-111632380D01*
X170473809Y-111632380D01*
X170616666Y-111680000D01*
X170711904Y-111775238D01*
X170759523Y-111870476D01*
X170807142Y-112060952D01*
X170807142Y-112203809D01*
X170759523Y-112394285D01*
X170711904Y-112489523D01*
X170616666Y-112584761D01*
X170473809Y-112632380D01*
X170235714Y-112632380D01*
X171759523Y-112632380D02*
X171188095Y-112632380D01*
X171473809Y-112632380D02*
X171473809Y-111632380D01*
X171378571Y-111775238D01*
X171283333Y-111870476D01*
X171188095Y-111918095D01*
X172092857Y-111632380D02*
X172759523Y-111632380D01*
X172330952Y-112632380D01*
X159948714Y-41727380D02*
X159948714Y-40727380D01*
X160186809Y-40727380D01*
X160329666Y-40775000D01*
X160424904Y-40870238D01*
X160472523Y-40965476D01*
X160520142Y-41155952D01*
X160520142Y-41298809D01*
X160472523Y-41489285D01*
X160424904Y-41584523D01*
X160329666Y-41679761D01*
X160186809Y-41727380D01*
X159948714Y-41727380D01*
X161472523Y-41727380D02*
X160901095Y-41727380D01*
X161186809Y-41727380D02*
X161186809Y-40727380D01*
X161091571Y-40870238D01*
X160996333Y-40965476D01*
X160901095Y-41013095D01*
X162329666Y-40727380D02*
X162139190Y-40727380D01*
X162043952Y-40775000D01*
X161996333Y-40822619D01*
X161901095Y-40965476D01*
X161853476Y-41155952D01*
X161853476Y-41536904D01*
X161901095Y-41632142D01*
X161948714Y-41679761D01*
X162043952Y-41727380D01*
X162234428Y-41727380D01*
X162329666Y-41679761D01*
X162377285Y-41632142D01*
X162424904Y-41536904D01*
X162424904Y-41298809D01*
X162377285Y-41203571D01*
X162329666Y-41155952D01*
X162234428Y-41108333D01*
X162043952Y-41108333D01*
X161948714Y-41155952D01*
X161901095Y-41203571D01*
X161853476Y-41298809D01*
X159948714Y-51760380D02*
X159948714Y-50760380D01*
X160186809Y-50760380D01*
X160329666Y-50808000D01*
X160424904Y-50903238D01*
X160472523Y-50998476D01*
X160520142Y-51188952D01*
X160520142Y-51331809D01*
X160472523Y-51522285D01*
X160424904Y-51617523D01*
X160329666Y-51712761D01*
X160186809Y-51760380D01*
X159948714Y-51760380D01*
X161472523Y-51760380D02*
X160901095Y-51760380D01*
X161186809Y-51760380D02*
X161186809Y-50760380D01*
X161091571Y-50903238D01*
X160996333Y-50998476D01*
X160901095Y-51046095D01*
X162377285Y-50760380D02*
X161901095Y-50760380D01*
X161853476Y-51236571D01*
X161901095Y-51188952D01*
X161996333Y-51141333D01*
X162234428Y-51141333D01*
X162329666Y-51188952D01*
X162377285Y-51236571D01*
X162424904Y-51331809D01*
X162424904Y-51569904D01*
X162377285Y-51665142D01*
X162329666Y-51712761D01*
X162234428Y-51760380D01*
X161996333Y-51760380D01*
X161901095Y-51712761D01*
X161853476Y-51665142D01*
X160075714Y-61666380D02*
X160075714Y-60666380D01*
X160313809Y-60666380D01*
X160456666Y-60714000D01*
X160551904Y-60809238D01*
X160599523Y-60904476D01*
X160647142Y-61094952D01*
X160647142Y-61237809D01*
X160599523Y-61428285D01*
X160551904Y-61523523D01*
X160456666Y-61618761D01*
X160313809Y-61666380D01*
X160075714Y-61666380D01*
X161599523Y-61666380D02*
X161028095Y-61666380D01*
X161313809Y-61666380D02*
X161313809Y-60666380D01*
X161218571Y-60809238D01*
X161123333Y-60904476D01*
X161028095Y-60952095D01*
X162456666Y-60999714D02*
X162456666Y-61666380D01*
X162218571Y-60618761D02*
X161980476Y-61333047D01*
X162599523Y-61333047D01*
X160075714Y-72207380D02*
X160075714Y-71207380D01*
X160313809Y-71207380D01*
X160456666Y-71255000D01*
X160551904Y-71350238D01*
X160599523Y-71445476D01*
X160647142Y-71635952D01*
X160647142Y-71778809D01*
X160599523Y-71969285D01*
X160551904Y-72064523D01*
X160456666Y-72159761D01*
X160313809Y-72207380D01*
X160075714Y-72207380D01*
X161599523Y-72207380D02*
X161028095Y-72207380D01*
X161313809Y-72207380D02*
X161313809Y-71207380D01*
X161218571Y-71350238D01*
X161123333Y-71445476D01*
X161028095Y-71493095D01*
X161932857Y-71207380D02*
X162551904Y-71207380D01*
X162218571Y-71588333D01*
X162361428Y-71588333D01*
X162456666Y-71635952D01*
X162504285Y-71683571D01*
X162551904Y-71778809D01*
X162551904Y-72016904D01*
X162504285Y-72112142D01*
X162456666Y-72159761D01*
X162361428Y-72207380D01*
X162075714Y-72207380D01*
X161980476Y-72159761D01*
X161932857Y-72112142D01*
X160075714Y-82367380D02*
X160075714Y-81367380D01*
X160313809Y-81367380D01*
X160456666Y-81415000D01*
X160551904Y-81510238D01*
X160599523Y-81605476D01*
X160647142Y-81795952D01*
X160647142Y-81938809D01*
X160599523Y-82129285D01*
X160551904Y-82224523D01*
X160456666Y-82319761D01*
X160313809Y-82367380D01*
X160075714Y-82367380D01*
X161599523Y-82367380D02*
X161028095Y-82367380D01*
X161313809Y-82367380D02*
X161313809Y-81367380D01*
X161218571Y-81510238D01*
X161123333Y-81605476D01*
X161028095Y-81653095D01*
X161980476Y-81462619D02*
X162028095Y-81415000D01*
X162123333Y-81367380D01*
X162361428Y-81367380D01*
X162456666Y-81415000D01*
X162504285Y-81462619D01*
X162551904Y-81557857D01*
X162551904Y-81653095D01*
X162504285Y-81795952D01*
X161932857Y-82367380D01*
X162551904Y-82367380D01*
X160075714Y-92527380D02*
X160075714Y-91527380D01*
X160313809Y-91527380D01*
X160456666Y-91575000D01*
X160551904Y-91670238D01*
X160599523Y-91765476D01*
X160647142Y-91955952D01*
X160647142Y-92098809D01*
X160599523Y-92289285D01*
X160551904Y-92384523D01*
X160456666Y-92479761D01*
X160313809Y-92527380D01*
X160075714Y-92527380D01*
X161599523Y-92527380D02*
X161028095Y-92527380D01*
X161313809Y-92527380D02*
X161313809Y-91527380D01*
X161218571Y-91670238D01*
X161123333Y-91765476D01*
X161028095Y-91813095D01*
X162551904Y-92527380D02*
X161980476Y-92527380D01*
X162266190Y-92527380D02*
X162266190Y-91527380D01*
X162170952Y-91670238D01*
X162075714Y-91765476D01*
X161980476Y-91813095D01*
X160075714Y-102687380D02*
X160075714Y-101687380D01*
X160313809Y-101687380D01*
X160456666Y-101735000D01*
X160551904Y-101830238D01*
X160599523Y-101925476D01*
X160647142Y-102115952D01*
X160647142Y-102258809D01*
X160599523Y-102449285D01*
X160551904Y-102544523D01*
X160456666Y-102639761D01*
X160313809Y-102687380D01*
X160075714Y-102687380D01*
X161599523Y-102687380D02*
X161028095Y-102687380D01*
X161313809Y-102687380D02*
X161313809Y-101687380D01*
X161218571Y-101830238D01*
X161123333Y-101925476D01*
X161028095Y-101973095D01*
X162218571Y-101687380D02*
X162313809Y-101687380D01*
X162409047Y-101735000D01*
X162456666Y-101782619D01*
X162504285Y-101877857D01*
X162551904Y-102068333D01*
X162551904Y-102306428D01*
X162504285Y-102496904D01*
X162456666Y-102592142D01*
X162409047Y-102639761D01*
X162313809Y-102687380D01*
X162218571Y-102687380D01*
X162123333Y-102639761D01*
X162075714Y-102592142D01*
X162028095Y-102496904D01*
X161980476Y-102306428D01*
X161980476Y-102068333D01*
X162028095Y-101877857D01*
X162075714Y-101782619D01*
X162123333Y-101735000D01*
X162218571Y-101687380D01*
X160551904Y-112847380D02*
X160551904Y-111847380D01*
X160790000Y-111847380D01*
X160932857Y-111895000D01*
X161028095Y-111990238D01*
X161075714Y-112085476D01*
X161123333Y-112275952D01*
X161123333Y-112418809D01*
X161075714Y-112609285D01*
X161028095Y-112704523D01*
X160932857Y-112799761D01*
X160790000Y-112847380D01*
X160551904Y-112847380D01*
X161599523Y-112847380D02*
X161790000Y-112847380D01*
X161885238Y-112799761D01*
X161932857Y-112752142D01*
X162028095Y-112609285D01*
X162075714Y-112418809D01*
X162075714Y-112037857D01*
X162028095Y-111942619D01*
X161980476Y-111895000D01*
X161885238Y-111847380D01*
X161694761Y-111847380D01*
X161599523Y-111895000D01*
X161551904Y-111942619D01*
X161504285Y-112037857D01*
X161504285Y-112275952D01*
X161551904Y-112371190D01*
X161599523Y-112418809D01*
X161694761Y-112466428D01*
X161885238Y-112466428D01*
X161980476Y-112418809D01*
X162028095Y-112371190D01*
X162075714Y-112275952D01*
X180871904Y-41512380D02*
X180871904Y-40512380D01*
X181110000Y-40512380D01*
X181252857Y-40560000D01*
X181348095Y-40655238D01*
X181395714Y-40750476D01*
X181443333Y-40940952D01*
X181443333Y-41083809D01*
X181395714Y-41274285D01*
X181348095Y-41369523D01*
X181252857Y-41464761D01*
X181110000Y-41512380D01*
X180871904Y-41512380D01*
X182014761Y-40940952D02*
X181919523Y-40893333D01*
X181871904Y-40845714D01*
X181824285Y-40750476D01*
X181824285Y-40702857D01*
X181871904Y-40607619D01*
X181919523Y-40560000D01*
X182014761Y-40512380D01*
X182205238Y-40512380D01*
X182300476Y-40560000D01*
X182348095Y-40607619D01*
X182395714Y-40702857D01*
X182395714Y-40750476D01*
X182348095Y-40845714D01*
X182300476Y-40893333D01*
X182205238Y-40940952D01*
X182014761Y-40940952D01*
X181919523Y-40988571D01*
X181871904Y-41036190D01*
X181824285Y-41131428D01*
X181824285Y-41321904D01*
X181871904Y-41417142D01*
X181919523Y-41464761D01*
X182014761Y-41512380D01*
X182205238Y-41512380D01*
X182300476Y-41464761D01*
X182348095Y-41417142D01*
X182395714Y-41321904D01*
X182395714Y-41131428D01*
X182348095Y-41036190D01*
X182300476Y-40988571D01*
X182205238Y-40940952D01*
X180871904Y-51672380D02*
X180871904Y-50672380D01*
X181110000Y-50672380D01*
X181252857Y-50720000D01*
X181348095Y-50815238D01*
X181395714Y-50910476D01*
X181443333Y-51100952D01*
X181443333Y-51243809D01*
X181395714Y-51434285D01*
X181348095Y-51529523D01*
X181252857Y-51624761D01*
X181110000Y-51672380D01*
X180871904Y-51672380D01*
X181776666Y-50672380D02*
X182443333Y-50672380D01*
X182014761Y-51672380D01*
X180871904Y-61832380D02*
X180871904Y-60832380D01*
X181110000Y-60832380D01*
X181252857Y-60880000D01*
X181348095Y-60975238D01*
X181395714Y-61070476D01*
X181443333Y-61260952D01*
X181443333Y-61403809D01*
X181395714Y-61594285D01*
X181348095Y-61689523D01*
X181252857Y-61784761D01*
X181110000Y-61832380D01*
X180871904Y-61832380D01*
X182300476Y-60832380D02*
X182110000Y-60832380D01*
X182014761Y-60880000D01*
X181967142Y-60927619D01*
X181871904Y-61070476D01*
X181824285Y-61260952D01*
X181824285Y-61641904D01*
X181871904Y-61737142D01*
X181919523Y-61784761D01*
X182014761Y-61832380D01*
X182205238Y-61832380D01*
X182300476Y-61784761D01*
X182348095Y-61737142D01*
X182395714Y-61641904D01*
X182395714Y-61403809D01*
X182348095Y-61308571D01*
X182300476Y-61260952D01*
X182205238Y-61213333D01*
X182014761Y-61213333D01*
X181919523Y-61260952D01*
X181871904Y-61308571D01*
X181824285Y-61403809D01*
X180871904Y-72207380D02*
X180871904Y-71207380D01*
X181110000Y-71207380D01*
X181252857Y-71255000D01*
X181348095Y-71350238D01*
X181395714Y-71445476D01*
X181443333Y-71635952D01*
X181443333Y-71778809D01*
X181395714Y-71969285D01*
X181348095Y-72064523D01*
X181252857Y-72159761D01*
X181110000Y-72207380D01*
X180871904Y-72207380D01*
X182348095Y-71207380D02*
X181871904Y-71207380D01*
X181824285Y-71683571D01*
X181871904Y-71635952D01*
X181967142Y-71588333D01*
X182205238Y-71588333D01*
X182300476Y-71635952D01*
X182348095Y-71683571D01*
X182395714Y-71778809D01*
X182395714Y-72016904D01*
X182348095Y-72112142D01*
X182300476Y-72159761D01*
X182205238Y-72207380D01*
X181967142Y-72207380D01*
X181871904Y-72159761D01*
X181824285Y-72112142D01*
X180871904Y-82367380D02*
X180871904Y-81367380D01*
X181110000Y-81367380D01*
X181252857Y-81415000D01*
X181348095Y-81510238D01*
X181395714Y-81605476D01*
X181443333Y-81795952D01*
X181443333Y-81938809D01*
X181395714Y-82129285D01*
X181348095Y-82224523D01*
X181252857Y-82319761D01*
X181110000Y-82367380D01*
X180871904Y-82367380D01*
X182300476Y-81700714D02*
X182300476Y-82367380D01*
X182062380Y-81319761D02*
X181824285Y-82034047D01*
X182443333Y-82034047D01*
X180871904Y-92527380D02*
X180871904Y-91527380D01*
X181110000Y-91527380D01*
X181252857Y-91575000D01*
X181348095Y-91670238D01*
X181395714Y-91765476D01*
X181443333Y-91955952D01*
X181443333Y-92098809D01*
X181395714Y-92289285D01*
X181348095Y-92384523D01*
X181252857Y-92479761D01*
X181110000Y-92527380D01*
X180871904Y-92527380D01*
X181776666Y-91527380D02*
X182395714Y-91527380D01*
X182062380Y-91908333D01*
X182205238Y-91908333D01*
X182300476Y-91955952D01*
X182348095Y-92003571D01*
X182395714Y-92098809D01*
X182395714Y-92336904D01*
X182348095Y-92432142D01*
X182300476Y-92479761D01*
X182205238Y-92527380D01*
X181919523Y-92527380D01*
X181824285Y-92479761D01*
X181776666Y-92432142D01*
X180871904Y-102687380D02*
X180871904Y-101687380D01*
X181110000Y-101687380D01*
X181252857Y-101735000D01*
X181348095Y-101830238D01*
X181395714Y-101925476D01*
X181443333Y-102115952D01*
X181443333Y-102258809D01*
X181395714Y-102449285D01*
X181348095Y-102544523D01*
X181252857Y-102639761D01*
X181110000Y-102687380D01*
X180871904Y-102687380D01*
X181824285Y-101782619D02*
X181871904Y-101735000D01*
X181967142Y-101687380D01*
X182205238Y-101687380D01*
X182300476Y-101735000D01*
X182348095Y-101782619D01*
X182395714Y-101877857D01*
X182395714Y-101973095D01*
X182348095Y-102115952D01*
X181776666Y-102687380D01*
X182395714Y-102687380D01*
X180871904Y-112847380D02*
X180871904Y-111847380D01*
X181110000Y-111847380D01*
X181252857Y-111895000D01*
X181348095Y-111990238D01*
X181395714Y-112085476D01*
X181443333Y-112275952D01*
X181443333Y-112418809D01*
X181395714Y-112609285D01*
X181348095Y-112704523D01*
X181252857Y-112799761D01*
X181110000Y-112847380D01*
X180871904Y-112847380D01*
X182395714Y-112847380D02*
X181824285Y-112847380D01*
X182110000Y-112847380D02*
X182110000Y-111847380D01*
X182014761Y-111990238D01*
X181919523Y-112085476D01*
X181824285Y-112133095D01*
X175768095Y-99147380D02*
X175768095Y-99956904D01*
X175815714Y-100052142D01*
X175863333Y-100099761D01*
X175958571Y-100147380D01*
X176149047Y-100147380D01*
X176244285Y-100099761D01*
X176291904Y-100052142D01*
X176339523Y-99956904D01*
X176339523Y-99147380D01*
X176768095Y-99242619D02*
X176815714Y-99195000D01*
X176910952Y-99147380D01*
X177149047Y-99147380D01*
X177244285Y-99195000D01*
X177291904Y-99242619D01*
X177339523Y-99337857D01*
X177339523Y-99433095D01*
X177291904Y-99575952D01*
X176720476Y-100147380D01*
X177339523Y-100147380D01*
X177038095Y-70572380D02*
X177038095Y-71381904D01*
X177085714Y-71477142D01*
X177133333Y-71524761D01*
X177228571Y-71572380D01*
X177419047Y-71572380D01*
X177514285Y-71524761D01*
X177561904Y-71477142D01*
X177609523Y-71381904D01*
X177609523Y-70572380D01*
X178609523Y-71572380D02*
X178038095Y-71572380D01*
X178323809Y-71572380D02*
X178323809Y-70572380D01*
X178228571Y-70715238D01*
X178133333Y-70810476D01*
X178038095Y-70858095D01*
M02*
